%TF.GenerationSoftware,KiCad,Pcbnew,(6.0.1)*%
%TF.CreationDate,2022-02-03T01:47:34-08:00*%
%TF.ProjectId,sd2ps2,73643270-7332-42e6-9b69-6361645f7063,rev?*%
%TF.SameCoordinates,Original*%
%TF.FileFunction,Copper,L2,Bot*%
%TF.FilePolarity,Positive*%
%FSLAX46Y46*%
G04 Gerber Fmt 4.6, Leading zero omitted, Abs format (unit mm)*
G04 Created by KiCad (PCBNEW (6.0.1)) date 2022-02-03 01:47:34*
%MOMM*%
%LPD*%
G01*
G04 APERTURE LIST*
%TA.AperFunction,ViaPad*%
%ADD10C,0.800000*%
%TD*%
%TA.AperFunction,Conductor*%
%ADD11C,0.250000*%
%TD*%
G04 APERTURE END LIST*
D10*
%TO.N,GND*%
X178000000Y-105000000D03*
X200000000Y-97500000D03*
X200000000Y-107500000D03*
X170000000Y-115000000D03*
X200000000Y-110000000D03*
X167500000Y-95000000D03*
X170000000Y-112500000D03*
X174000000Y-105000000D03*
X170000000Y-110000000D03*
X200000000Y-100000000D03*
X197500000Y-80000000D03*
X200000000Y-112500000D03*
X167500000Y-100000000D03*
X200000000Y-87500000D03*
X174000000Y-110000000D03*
X167500000Y-97500000D03*
X170000000Y-77500000D03*
X178000000Y-110000000D03*
X167500000Y-110000000D03*
X197500000Y-77500000D03*
X200000000Y-90000000D03*
X167500000Y-102500000D03*
X197500000Y-82500000D03*
X189500000Y-110000000D03*
X180500000Y-105000000D03*
X167500000Y-112500000D03*
X180500000Y-110000000D03*
X170000000Y-82500000D03*
X170000000Y-80000000D03*
X200000000Y-92500000D03*
X170000000Y-105000000D03*
X167500000Y-90000000D03*
X200000000Y-102500000D03*
X197500000Y-85000000D03*
X180500000Y-107500000D03*
X189500000Y-105000000D03*
X174000000Y-107500000D03*
X167500000Y-107500000D03*
X186500000Y-107500000D03*
X170000000Y-107500000D03*
X167500000Y-105000000D03*
X167500000Y-87500000D03*
X200000000Y-85000000D03*
X184000000Y-107500000D03*
X167500000Y-115000000D03*
X200000000Y-95000000D03*
X167500000Y-85000000D03*
X178000000Y-107500000D03*
X167500000Y-92500000D03*
X184000000Y-105000000D03*
X200000000Y-105000000D03*
X184000000Y-110000000D03*
%TO.N,/CLK*%
X188750000Y-89750000D03*
X176500000Y-115750000D03*
%TO.N,/CS*%
X175000000Y-96250000D03*
X176250000Y-119250000D03*
%TO.N,/DI*%
X185000000Y-95250008D03*
X193000000Y-118500000D03*
%TO.N,/DO*%
X187750016Y-98750000D03*
X194750000Y-118500000D03*
%TO.N,/CD*%
X175250000Y-87250000D03*
X190500000Y-89749996D03*
%TD*%
D11*
%TO.N,/CLK*%
X176500000Y-115750000D02*
X176500000Y-91750000D01*
X176500000Y-91750000D02*
X178500000Y-89750000D01*
X178500000Y-89750000D02*
X188750000Y-89750000D01*
%TO.N,/CS*%
X175500000Y-118500000D02*
X175500000Y-96750000D01*
X175500000Y-96750000D02*
X175000000Y-96250000D01*
X176250000Y-119250000D02*
X175500000Y-118500000D01*
%TO.N,/DI*%
X193000000Y-118500000D02*
X185000000Y-110500000D01*
X185000000Y-110500000D02*
X185000000Y-95250008D01*
%TO.N,/DO*%
X194750000Y-118500000D02*
X187750016Y-111500016D01*
X187750016Y-111500016D02*
X187750016Y-98750000D01*
%TO.N,/CD*%
X175250000Y-87250000D02*
X187750000Y-87250000D01*
X190249996Y-89749996D02*
X190500000Y-89749996D01*
X187750000Y-87250000D02*
X190249996Y-89749996D01*
%TD*%
%TA.AperFunction,Conductor*%
%TO.N,GND*%
G36*
X198334121Y-76528002D02*
G01*
X198380614Y-76581658D01*
X198392000Y-76634000D01*
X198392000Y-82991298D01*
X198391998Y-82992068D01*
X198391524Y-83069652D01*
X198393990Y-83078281D01*
X198393991Y-83078286D01*
X198399639Y-83098048D01*
X198403217Y-83114809D01*
X198406130Y-83135152D01*
X198406133Y-83135162D01*
X198407405Y-83144045D01*
X198418021Y-83167395D01*
X198424464Y-83184907D01*
X198431512Y-83209565D01*
X198447274Y-83234548D01*
X198455404Y-83249614D01*
X198467633Y-83276510D01*
X198484374Y-83295939D01*
X198495479Y-83310947D01*
X198509160Y-83332631D01*
X198515888Y-83338573D01*
X198531296Y-83352181D01*
X198543340Y-83364373D01*
X198562619Y-83386747D01*
X198570147Y-83391626D01*
X198570150Y-83391629D01*
X198584139Y-83400696D01*
X198599013Y-83411986D01*
X198618228Y-83428956D01*
X198626354Y-83432771D01*
X198626355Y-83432772D01*
X198632021Y-83435432D01*
X198644966Y-83441510D01*
X198659935Y-83449824D01*
X198684727Y-83465893D01*
X198701650Y-83470954D01*
X198709290Y-83473239D01*
X198726736Y-83479901D01*
X198749948Y-83490799D01*
X198779130Y-83495343D01*
X198795849Y-83499126D01*
X198815536Y-83505014D01*
X198815539Y-83505015D01*
X198824141Y-83507587D01*
X198833116Y-83507642D01*
X198833117Y-83507642D01*
X198839810Y-83507683D01*
X198858556Y-83507797D01*
X198859328Y-83507830D01*
X198860423Y-83508000D01*
X198891298Y-83508000D01*
X198892068Y-83508002D01*
X198965716Y-83508452D01*
X198965717Y-83508452D01*
X198969652Y-83508476D01*
X198970996Y-83508092D01*
X198972341Y-83508000D01*
X200866000Y-83508000D01*
X200934121Y-83528002D01*
X200980614Y-83581658D01*
X200992000Y-83634000D01*
X200992000Y-115866000D01*
X200971998Y-115934121D01*
X200918342Y-115980614D01*
X200866000Y-115992000D01*
X198208702Y-115992000D01*
X198207932Y-115991998D01*
X198207078Y-115991993D01*
X198130348Y-115991524D01*
X198121719Y-115993990D01*
X198121714Y-115993991D01*
X198101952Y-115999639D01*
X198085191Y-116003217D01*
X198064848Y-116006130D01*
X198064838Y-116006133D01*
X198055955Y-116007405D01*
X198032605Y-116018021D01*
X198015093Y-116024464D01*
X198007057Y-116026761D01*
X197990435Y-116031512D01*
X197965452Y-116047274D01*
X197950386Y-116055404D01*
X197923490Y-116067633D01*
X197904061Y-116084374D01*
X197889053Y-116095479D01*
X197867369Y-116109160D01*
X197861427Y-116115888D01*
X197847819Y-116131296D01*
X197835627Y-116143340D01*
X197813253Y-116162619D01*
X197808374Y-116170147D01*
X197808371Y-116170150D01*
X197799304Y-116184139D01*
X197788014Y-116199013D01*
X197771044Y-116218228D01*
X197758490Y-116244966D01*
X197750176Y-116259935D01*
X197734107Y-116284727D01*
X197731535Y-116293327D01*
X197726761Y-116309290D01*
X197720099Y-116326736D01*
X197709201Y-116349948D01*
X197704658Y-116379128D01*
X197700874Y-116395849D01*
X197694986Y-116415536D01*
X197694985Y-116415539D01*
X197692413Y-116424141D01*
X197692358Y-116433116D01*
X197692358Y-116433117D01*
X197692203Y-116458546D01*
X197692170Y-116459328D01*
X197692000Y-116460423D01*
X197692000Y-116491298D01*
X197691998Y-116492068D01*
X197691524Y-116569652D01*
X197691908Y-116570996D01*
X197692000Y-116572341D01*
X197692000Y-119278911D01*
X197671998Y-119347032D01*
X197618342Y-119393525D01*
X197566977Y-119404907D01*
X196517692Y-119413041D01*
X195415942Y-119421582D01*
X195347669Y-119402109D01*
X195300762Y-119348815D01*
X195290113Y-119278622D01*
X195319105Y-119213814D01*
X195340904Y-119193651D01*
X195355907Y-119182751D01*
X195355912Y-119182746D01*
X195361253Y-119178866D01*
X195373322Y-119165462D01*
X195484621Y-119041852D01*
X195484622Y-119041851D01*
X195489040Y-119036944D01*
X195552654Y-118926761D01*
X195581223Y-118877279D01*
X195581224Y-118877278D01*
X195584527Y-118871556D01*
X195643542Y-118689928D01*
X195655512Y-118576045D01*
X195662814Y-118506565D01*
X195663504Y-118500000D01*
X195651301Y-118383891D01*
X195644232Y-118316635D01*
X195644232Y-118316633D01*
X195643542Y-118310072D01*
X195584527Y-118128444D01*
X195489040Y-117963056D01*
X195361253Y-117821134D01*
X195206752Y-117708882D01*
X195200724Y-117706198D01*
X195200722Y-117706197D01*
X195038319Y-117633891D01*
X195038318Y-117633891D01*
X195032288Y-117631206D01*
X194938887Y-117611353D01*
X194851944Y-117592872D01*
X194851939Y-117592872D01*
X194845487Y-117591500D01*
X194789595Y-117591500D01*
X194721474Y-117571498D01*
X194700500Y-117554595D01*
X188420421Y-111274516D01*
X188386395Y-111212204D01*
X188383516Y-111185421D01*
X188383516Y-99452524D01*
X188403518Y-99384403D01*
X188415874Y-99368221D01*
X188489056Y-99286944D01*
X188584543Y-99121556D01*
X188643558Y-98939928D01*
X188663520Y-98750000D01*
X188643558Y-98560072D01*
X188584543Y-98378444D01*
X188489056Y-98213056D01*
X188361269Y-98071134D01*
X188206768Y-97958882D01*
X188200740Y-97956198D01*
X188200738Y-97956197D01*
X188038335Y-97883891D01*
X188038334Y-97883891D01*
X188032304Y-97881206D01*
X187938903Y-97861353D01*
X187851960Y-97842872D01*
X187851955Y-97842872D01*
X187845503Y-97841500D01*
X187654529Y-97841500D01*
X187648077Y-97842872D01*
X187648072Y-97842872D01*
X187561129Y-97861353D01*
X187467728Y-97881206D01*
X187461698Y-97883891D01*
X187461697Y-97883891D01*
X187299294Y-97956197D01*
X187299292Y-97956198D01*
X187293264Y-97958882D01*
X187138763Y-98071134D01*
X187010976Y-98213056D01*
X186915489Y-98378444D01*
X186856474Y-98560072D01*
X186836512Y-98750000D01*
X186856474Y-98939928D01*
X186915489Y-99121556D01*
X187010976Y-99286944D01*
X187084153Y-99368215D01*
X187114869Y-99432221D01*
X187116516Y-99452524D01*
X187116516Y-111416421D01*
X187096514Y-111484542D01*
X187042858Y-111531035D01*
X186972584Y-111541139D01*
X186908004Y-111511645D01*
X186901421Y-111505516D01*
X185670405Y-110274500D01*
X185636379Y-110212188D01*
X185633500Y-110185405D01*
X185633500Y-95952532D01*
X185653502Y-95884411D01*
X185665858Y-95868229D01*
X185739040Y-95786952D01*
X185834527Y-95621564D01*
X185893542Y-95439936D01*
X185899433Y-95383891D01*
X185912814Y-95256573D01*
X185913504Y-95250008D01*
X185893542Y-95060080D01*
X185834527Y-94878452D01*
X185739040Y-94713064D01*
X185611253Y-94571142D01*
X185456752Y-94458890D01*
X185450724Y-94456206D01*
X185450722Y-94456205D01*
X185288319Y-94383899D01*
X185288318Y-94383899D01*
X185282288Y-94381214D01*
X185188888Y-94361361D01*
X185101944Y-94342880D01*
X185101939Y-94342880D01*
X185095487Y-94341508D01*
X184904513Y-94341508D01*
X184898061Y-94342880D01*
X184898056Y-94342880D01*
X184811113Y-94361361D01*
X184717712Y-94381214D01*
X184711682Y-94383899D01*
X184711681Y-94383899D01*
X184549278Y-94456205D01*
X184549276Y-94456206D01*
X184543248Y-94458890D01*
X184388747Y-94571142D01*
X184260960Y-94713064D01*
X184165473Y-94878452D01*
X184106458Y-95060080D01*
X184086496Y-95250008D01*
X184087186Y-95256573D01*
X184100568Y-95383891D01*
X184106458Y-95439936D01*
X184165473Y-95621564D01*
X184260960Y-95786952D01*
X184334137Y-95868223D01*
X184364853Y-95932229D01*
X184366500Y-95952532D01*
X184366500Y-110421233D01*
X184365973Y-110432416D01*
X184364298Y-110439909D01*
X184364547Y-110447835D01*
X184364547Y-110447836D01*
X184366438Y-110507986D01*
X184366500Y-110511945D01*
X184366500Y-110539856D01*
X184366997Y-110543790D01*
X184366997Y-110543791D01*
X184367005Y-110543856D01*
X184367938Y-110555693D01*
X184369327Y-110599889D01*
X184374978Y-110619339D01*
X184378987Y-110638700D01*
X184381526Y-110658797D01*
X184384445Y-110666168D01*
X184384445Y-110666170D01*
X184397804Y-110699912D01*
X184401649Y-110711142D01*
X184413982Y-110753593D01*
X184418015Y-110760412D01*
X184418017Y-110760417D01*
X184424293Y-110771028D01*
X184432988Y-110788776D01*
X184440448Y-110807617D01*
X184445110Y-110814033D01*
X184445110Y-110814034D01*
X184466436Y-110843387D01*
X184472952Y-110853307D01*
X184495458Y-110891362D01*
X184509779Y-110905683D01*
X184522619Y-110920716D01*
X184534528Y-110937107D01*
X184540634Y-110942158D01*
X184568605Y-110965298D01*
X184577384Y-110973288D01*
X192052878Y-118448782D01*
X192086904Y-118511094D01*
X192089092Y-118524703D01*
X192106458Y-118689928D01*
X192108498Y-118696206D01*
X192136168Y-118781366D01*
X192138196Y-118852334D01*
X192101533Y-118913131D01*
X192037821Y-118944457D01*
X191966841Y-118935123D01*
X191965273Y-118934107D01*
X191956676Y-118931536D01*
X191956674Y-118931535D01*
X191940710Y-118926761D01*
X191923264Y-118920099D01*
X191918827Y-118918016D01*
X191900052Y-118909201D01*
X191870870Y-118904657D01*
X191854151Y-118900874D01*
X191834464Y-118894986D01*
X191834461Y-118894985D01*
X191825859Y-118892413D01*
X191816884Y-118892358D01*
X191816883Y-118892358D01*
X191810190Y-118892317D01*
X191791444Y-118892203D01*
X191790672Y-118892170D01*
X191789577Y-118892000D01*
X191758702Y-118892000D01*
X191757932Y-118891998D01*
X191684284Y-118891548D01*
X191684283Y-118891548D01*
X191680348Y-118891524D01*
X191679004Y-118891908D01*
X191677659Y-118892000D01*
X190158702Y-118892000D01*
X190157932Y-118891998D01*
X190157078Y-118891993D01*
X190080348Y-118891524D01*
X190071719Y-118893990D01*
X190071714Y-118893991D01*
X190051952Y-118899639D01*
X190035191Y-118903217D01*
X190014848Y-118906130D01*
X190014838Y-118906133D01*
X190005955Y-118907405D01*
X189982605Y-118918021D01*
X189965093Y-118924464D01*
X189957057Y-118926761D01*
X189940435Y-118931512D01*
X189915452Y-118947274D01*
X189900386Y-118955404D01*
X189873490Y-118967633D01*
X189854061Y-118984374D01*
X189839053Y-118995479D01*
X189817369Y-119009160D01*
X189811427Y-119015888D01*
X189797819Y-119031296D01*
X189785626Y-119043341D01*
X189773495Y-119053794D01*
X189763253Y-119062619D01*
X189758374Y-119070147D01*
X189758371Y-119070150D01*
X189749304Y-119084139D01*
X189738014Y-119099013D01*
X189721044Y-119118228D01*
X189708490Y-119144966D01*
X189700176Y-119159935D01*
X189684107Y-119184727D01*
X189681535Y-119193327D01*
X189676761Y-119209290D01*
X189670099Y-119226736D01*
X189659201Y-119249948D01*
X189654737Y-119278622D01*
X189654658Y-119279128D01*
X189650874Y-119295849D01*
X189644986Y-119315536D01*
X189644985Y-119315539D01*
X189642413Y-119324141D01*
X189642358Y-119333116D01*
X189642358Y-119333117D01*
X189642203Y-119358546D01*
X189642170Y-119359328D01*
X189642000Y-119360423D01*
X189642000Y-119391298D01*
X189641998Y-119392068D01*
X189641952Y-119399679D01*
X189641524Y-119469652D01*
X189641908Y-119470996D01*
X189642000Y-119472341D01*
X189642000Y-127866000D01*
X189621998Y-127934121D01*
X189568342Y-127980614D01*
X189516000Y-127992000D01*
X181884000Y-127992000D01*
X181815879Y-127971998D01*
X181769386Y-127918342D01*
X181758000Y-127866000D01*
X181758000Y-119408702D01*
X181758002Y-119407932D01*
X181758421Y-119339322D01*
X181758476Y-119330348D01*
X181756010Y-119321719D01*
X181756009Y-119321714D01*
X181750361Y-119301952D01*
X181746783Y-119285191D01*
X181743870Y-119264848D01*
X181743867Y-119264838D01*
X181742595Y-119255955D01*
X181731979Y-119232605D01*
X181725536Y-119215093D01*
X181720954Y-119199063D01*
X181718488Y-119190435D01*
X181702726Y-119165452D01*
X181694596Y-119150386D01*
X181682367Y-119123490D01*
X181665626Y-119104061D01*
X181654521Y-119089053D01*
X181645630Y-119074961D01*
X181640840Y-119067369D01*
X181618703Y-119047818D01*
X181606659Y-119035626D01*
X181593239Y-119020051D01*
X181593237Y-119020050D01*
X181587381Y-119013253D01*
X181579853Y-119008374D01*
X181579850Y-119008371D01*
X181565861Y-118999304D01*
X181550987Y-118988014D01*
X181538502Y-118976988D01*
X181531772Y-118971044D01*
X181523646Y-118967229D01*
X181523645Y-118967228D01*
X181517979Y-118964568D01*
X181505034Y-118958490D01*
X181490065Y-118950176D01*
X181465273Y-118934107D01*
X181440709Y-118926761D01*
X181423264Y-118920099D01*
X181418827Y-118918016D01*
X181400052Y-118909201D01*
X181370870Y-118904657D01*
X181354151Y-118900874D01*
X181334464Y-118894986D01*
X181334461Y-118894985D01*
X181325859Y-118892413D01*
X181316884Y-118892358D01*
X181316883Y-118892358D01*
X181310190Y-118892317D01*
X181291444Y-118892203D01*
X181290672Y-118892170D01*
X181289577Y-118892000D01*
X181258702Y-118892000D01*
X181257932Y-118891998D01*
X181184284Y-118891548D01*
X181184283Y-118891548D01*
X181180348Y-118891524D01*
X181179004Y-118891908D01*
X181177659Y-118892000D01*
X179658702Y-118892000D01*
X179657932Y-118891998D01*
X179657078Y-118891993D01*
X179580348Y-118891524D01*
X179571719Y-118893990D01*
X179571714Y-118893991D01*
X179551952Y-118899639D01*
X179535191Y-118903217D01*
X179514848Y-118906130D01*
X179514838Y-118906133D01*
X179505955Y-118907405D01*
X179482605Y-118918021D01*
X179465093Y-118924464D01*
X179457057Y-118926761D01*
X179440435Y-118931512D01*
X179415452Y-118947274D01*
X179400386Y-118955404D01*
X179373490Y-118967633D01*
X179354061Y-118984374D01*
X179339053Y-118995479D01*
X179317369Y-119009160D01*
X179311427Y-119015888D01*
X179297819Y-119031296D01*
X179285626Y-119043341D01*
X179273495Y-119053794D01*
X179263253Y-119062619D01*
X179258374Y-119070147D01*
X179258371Y-119070150D01*
X179249304Y-119084139D01*
X179238014Y-119099013D01*
X179221044Y-119118228D01*
X179208490Y-119144966D01*
X179200176Y-119159935D01*
X179184107Y-119184727D01*
X179181535Y-119193327D01*
X179176761Y-119209290D01*
X179170099Y-119226736D01*
X179159201Y-119249948D01*
X179154737Y-119278622D01*
X179154658Y-119279128D01*
X179150873Y-119295854D01*
X179146609Y-119310109D01*
X179107924Y-119369640D01*
X179043195Y-119398807D01*
X179025894Y-119400000D01*
X177287676Y-119400000D01*
X177219555Y-119379998D01*
X177173062Y-119326342D01*
X177162366Y-119260833D01*
X177162814Y-119256570D01*
X177162814Y-119256565D01*
X177163504Y-119250000D01*
X177157582Y-119193651D01*
X177144232Y-119066635D01*
X177144232Y-119066633D01*
X177143542Y-119060072D01*
X177084527Y-118878444D01*
X177080806Y-118871998D01*
X176992341Y-118718774D01*
X176989040Y-118713056D01*
X176982175Y-118705431D01*
X176865675Y-118576045D01*
X176865674Y-118576044D01*
X176861253Y-118571134D01*
X176706752Y-118458882D01*
X176700724Y-118456198D01*
X176700722Y-118456197D01*
X176538319Y-118383891D01*
X176538318Y-118383891D01*
X176532288Y-118381206D01*
X176438887Y-118361353D01*
X176351944Y-118342872D01*
X176351939Y-118342872D01*
X176345487Y-118341500D01*
X176289595Y-118341500D01*
X176221474Y-118321498D01*
X176200500Y-118304595D01*
X176170405Y-118274500D01*
X176136379Y-118212188D01*
X176133500Y-118185405D01*
X176133500Y-116756492D01*
X176153502Y-116688371D01*
X176207158Y-116641878D01*
X176277432Y-116631774D01*
X176285697Y-116633245D01*
X176398056Y-116657128D01*
X176398061Y-116657128D01*
X176404513Y-116658500D01*
X176595487Y-116658500D01*
X176601939Y-116657128D01*
X176601944Y-116657128D01*
X176688887Y-116638647D01*
X176782288Y-116618794D01*
X176810330Y-116606309D01*
X176950722Y-116543803D01*
X176950724Y-116543802D01*
X176956752Y-116541118D01*
X177111253Y-116428866D01*
X177123255Y-116415536D01*
X177234621Y-116291852D01*
X177234622Y-116291851D01*
X177239040Y-116286944D01*
X177319364Y-116147819D01*
X177331223Y-116127279D01*
X177331224Y-116127278D01*
X177334527Y-116121556D01*
X177393542Y-115939928D01*
X177413504Y-115750000D01*
X177393542Y-115560072D01*
X177334527Y-115378444D01*
X177239040Y-115213056D01*
X177165863Y-115131785D01*
X177135147Y-115067779D01*
X177133500Y-115047476D01*
X177133500Y-92064594D01*
X177153502Y-91996473D01*
X177170405Y-91975499D01*
X178725500Y-90420405D01*
X178787812Y-90386379D01*
X178814595Y-90383500D01*
X188041800Y-90383500D01*
X188109921Y-90403502D01*
X188129147Y-90419843D01*
X188129420Y-90419540D01*
X188134332Y-90423963D01*
X188138747Y-90428866D01*
X188160329Y-90444546D01*
X188287901Y-90537233D01*
X188293248Y-90541118D01*
X188299276Y-90543802D01*
X188299278Y-90543803D01*
X188461672Y-90616105D01*
X188467712Y-90618794D01*
X188561113Y-90638647D01*
X188648056Y-90657128D01*
X188648061Y-90657128D01*
X188654513Y-90658500D01*
X188845487Y-90658500D01*
X188851939Y-90657128D01*
X188851944Y-90657128D01*
X188938887Y-90638647D01*
X189032288Y-90618794D01*
X189038328Y-90616105D01*
X189200722Y-90543803D01*
X189200724Y-90543802D01*
X189206752Y-90541118D01*
X189212100Y-90537233D01*
X189262157Y-90500864D01*
X189361253Y-90428866D01*
X189365675Y-90423955D01*
X189484621Y-90291852D01*
X189484624Y-90291848D01*
X189489040Y-90286944D01*
X189515882Y-90240452D01*
X189567264Y-90191459D01*
X189636978Y-90178023D01*
X189702889Y-90204409D01*
X189734120Y-90240452D01*
X189760960Y-90286940D01*
X189888747Y-90428862D01*
X190043248Y-90541114D01*
X190049276Y-90543798D01*
X190049278Y-90543799D01*
X190211681Y-90616105D01*
X190217712Y-90618790D01*
X190311113Y-90638643D01*
X190398056Y-90657124D01*
X190398061Y-90657124D01*
X190404513Y-90658496D01*
X190595487Y-90658496D01*
X190601939Y-90657124D01*
X190601944Y-90657124D01*
X190688887Y-90638643D01*
X190782288Y-90618790D01*
X190788319Y-90616105D01*
X190950722Y-90543799D01*
X190950724Y-90543798D01*
X190956752Y-90541114D01*
X191111253Y-90428862D01*
X191239040Y-90286940D01*
X191334527Y-90121552D01*
X191393542Y-89939924D01*
X191413504Y-89749996D01*
X191393542Y-89560068D01*
X191334527Y-89378440D01*
X191239040Y-89213052D01*
X191162229Y-89127744D01*
X191115675Y-89076041D01*
X191115674Y-89076040D01*
X191111253Y-89071130D01*
X191012157Y-88999132D01*
X190962094Y-88962759D01*
X190962093Y-88962758D01*
X190956752Y-88958878D01*
X190950724Y-88956194D01*
X190950722Y-88956193D01*
X190788319Y-88883887D01*
X190788318Y-88883887D01*
X190782288Y-88881202D01*
X190688887Y-88861349D01*
X190601944Y-88842868D01*
X190601939Y-88842868D01*
X190595487Y-88841496D01*
X190404513Y-88841496D01*
X190398058Y-88842868D01*
X190398049Y-88842869D01*
X190333613Y-88856566D01*
X190262822Y-88851165D01*
X190218320Y-88822415D01*
X188253652Y-86857747D01*
X188246112Y-86849461D01*
X188242000Y-86842982D01*
X188192348Y-86796356D01*
X188189507Y-86793602D01*
X188169770Y-86773865D01*
X188166573Y-86771385D01*
X188157551Y-86763680D01*
X188131100Y-86738841D01*
X188125321Y-86733414D01*
X188118375Y-86729595D01*
X188118372Y-86729593D01*
X188107566Y-86723652D01*
X188091047Y-86712801D01*
X188085048Y-86708148D01*
X188075041Y-86700386D01*
X188067772Y-86697241D01*
X188067768Y-86697238D01*
X188034463Y-86682826D01*
X188023813Y-86677609D01*
X187985060Y-86656305D01*
X187965437Y-86651267D01*
X187946734Y-86644863D01*
X187935420Y-86639967D01*
X187935419Y-86639967D01*
X187928145Y-86636819D01*
X187920322Y-86635580D01*
X187920312Y-86635577D01*
X187884476Y-86629901D01*
X187872856Y-86627495D01*
X187837711Y-86618472D01*
X187837710Y-86618472D01*
X187830030Y-86616500D01*
X187809776Y-86616500D01*
X187790065Y-86614949D01*
X187777886Y-86613020D01*
X187770057Y-86611780D01*
X187762165Y-86612526D01*
X187726039Y-86615941D01*
X187714181Y-86616500D01*
X175958200Y-86616500D01*
X175890079Y-86596498D01*
X175870853Y-86580157D01*
X175870580Y-86580460D01*
X175865668Y-86576037D01*
X175861253Y-86571134D01*
X175706752Y-86458882D01*
X175700724Y-86456198D01*
X175700722Y-86456197D01*
X175538319Y-86383891D01*
X175538318Y-86383891D01*
X175532288Y-86381206D01*
X175438888Y-86361353D01*
X175351944Y-86342872D01*
X175351939Y-86342872D01*
X175345487Y-86341500D01*
X175154513Y-86341500D01*
X175148061Y-86342872D01*
X175148056Y-86342872D01*
X175061112Y-86361353D01*
X174967712Y-86381206D01*
X174961682Y-86383891D01*
X174961681Y-86383891D01*
X174799278Y-86456197D01*
X174799276Y-86456198D01*
X174793248Y-86458882D01*
X174638747Y-86571134D01*
X174634326Y-86576044D01*
X174634325Y-86576045D01*
X174525203Y-86697238D01*
X174510960Y-86713056D01*
X174415473Y-86878444D01*
X174356458Y-87060072D01*
X174336496Y-87250000D01*
X174356458Y-87439928D01*
X174415473Y-87621556D01*
X174510960Y-87786944D01*
X174638747Y-87928866D01*
X174793248Y-88041118D01*
X174799276Y-88043802D01*
X174799278Y-88043803D01*
X174961681Y-88116109D01*
X174967712Y-88118794D01*
X175061112Y-88138647D01*
X175148056Y-88157128D01*
X175148061Y-88157128D01*
X175154513Y-88158500D01*
X175345487Y-88158500D01*
X175351939Y-88157128D01*
X175351944Y-88157128D01*
X175438887Y-88138647D01*
X175532288Y-88118794D01*
X175538319Y-88116109D01*
X175700722Y-88043803D01*
X175700724Y-88043802D01*
X175706752Y-88041118D01*
X175861253Y-87928866D01*
X175865668Y-87923963D01*
X175870580Y-87919540D01*
X175871705Y-87920789D01*
X175925014Y-87887949D01*
X175958200Y-87883500D01*
X187435406Y-87883500D01*
X187503527Y-87903502D01*
X187524501Y-87920405D01*
X188350248Y-88746152D01*
X188384274Y-88808464D01*
X188379209Y-88879279D01*
X188336662Y-88936115D01*
X188312402Y-88950354D01*
X188299278Y-88956197D01*
X188299276Y-88956198D01*
X188293248Y-88958882D01*
X188138747Y-89071134D01*
X188134332Y-89076037D01*
X188129420Y-89080460D01*
X188128295Y-89079211D01*
X188074986Y-89112051D01*
X188041800Y-89116500D01*
X178578767Y-89116500D01*
X178567584Y-89115973D01*
X178560091Y-89114298D01*
X178552165Y-89114547D01*
X178552164Y-89114547D01*
X178492014Y-89116438D01*
X178488055Y-89116500D01*
X178460144Y-89116500D01*
X178456210Y-89116997D01*
X178456209Y-89116997D01*
X178456144Y-89117005D01*
X178444307Y-89117938D01*
X178412490Y-89118938D01*
X178408029Y-89119078D01*
X178400110Y-89119327D01*
X178382454Y-89124456D01*
X178380658Y-89124978D01*
X178361306Y-89128986D01*
X178354235Y-89129880D01*
X178341203Y-89131526D01*
X178333834Y-89134443D01*
X178333832Y-89134444D01*
X178300097Y-89147800D01*
X178288869Y-89151645D01*
X178246407Y-89163982D01*
X178239584Y-89168017D01*
X178239582Y-89168018D01*
X178228972Y-89174293D01*
X178211224Y-89182988D01*
X178192383Y-89190448D01*
X178185967Y-89195110D01*
X178185966Y-89195110D01*
X178156613Y-89216436D01*
X178146693Y-89222952D01*
X178115465Y-89241420D01*
X178115462Y-89241422D01*
X178108638Y-89245458D01*
X178094317Y-89259779D01*
X178079284Y-89272619D01*
X178062893Y-89284528D01*
X178057842Y-89290634D01*
X178034702Y-89318605D01*
X178026712Y-89327384D01*
X176107747Y-91246348D01*
X176099461Y-91253888D01*
X176092982Y-91258000D01*
X176087557Y-91263777D01*
X176046357Y-91307651D01*
X176043602Y-91310493D01*
X176023865Y-91330230D01*
X176021385Y-91333427D01*
X176013682Y-91342447D01*
X175983414Y-91374679D01*
X175979595Y-91381625D01*
X175979593Y-91381628D01*
X175973652Y-91392434D01*
X175962801Y-91408953D01*
X175950386Y-91424959D01*
X175947241Y-91432228D01*
X175947238Y-91432232D01*
X175932826Y-91465537D01*
X175927609Y-91476187D01*
X175906305Y-91514940D01*
X175904334Y-91522615D01*
X175904334Y-91522616D01*
X175901267Y-91534562D01*
X175894863Y-91553266D01*
X175886819Y-91571855D01*
X175885580Y-91579678D01*
X175885577Y-91579688D01*
X175879901Y-91615524D01*
X175877495Y-91627144D01*
X175866500Y-91669970D01*
X175866500Y-91690224D01*
X175864949Y-91709934D01*
X175861780Y-91729943D01*
X175862526Y-91737835D01*
X175865941Y-91773961D01*
X175866500Y-91785819D01*
X175866500Y-95526374D01*
X175846498Y-95594495D01*
X175792842Y-95640988D01*
X175722568Y-95651092D01*
X175657988Y-95621598D01*
X175646864Y-95610684D01*
X175615675Y-95576045D01*
X175615674Y-95576044D01*
X175611253Y-95571134D01*
X175456752Y-95458882D01*
X175450724Y-95456198D01*
X175450722Y-95456197D01*
X175288319Y-95383891D01*
X175288318Y-95383891D01*
X175282288Y-95381206D01*
X175188887Y-95361353D01*
X175101944Y-95342872D01*
X175101939Y-95342872D01*
X175095487Y-95341500D01*
X174904513Y-95341500D01*
X174898061Y-95342872D01*
X174898056Y-95342872D01*
X174811112Y-95361353D01*
X174717712Y-95381206D01*
X174711682Y-95383891D01*
X174711681Y-95383891D01*
X174549278Y-95456197D01*
X174549276Y-95456198D01*
X174543248Y-95458882D01*
X174388747Y-95571134D01*
X174384326Y-95576044D01*
X174384325Y-95576045D01*
X174316753Y-95651092D01*
X174260960Y-95713056D01*
X174165473Y-95878444D01*
X174106458Y-96060072D01*
X174086496Y-96250000D01*
X174106458Y-96439928D01*
X174165473Y-96621556D01*
X174260960Y-96786944D01*
X174388747Y-96928866D01*
X174543248Y-97041118D01*
X174549276Y-97043802D01*
X174549278Y-97043803D01*
X174711681Y-97116109D01*
X174717712Y-97118794D01*
X174766697Y-97129206D01*
X174829170Y-97162934D01*
X174863492Y-97225084D01*
X174866500Y-97252453D01*
X174866500Y-118421233D01*
X174865973Y-118432416D01*
X174864298Y-118439909D01*
X174864547Y-118447835D01*
X174864547Y-118447836D01*
X174866438Y-118507986D01*
X174866500Y-118511945D01*
X174866500Y-118539856D01*
X174866997Y-118543790D01*
X174866997Y-118543791D01*
X174867005Y-118543856D01*
X174867938Y-118555693D01*
X174869327Y-118599889D01*
X174874978Y-118619339D01*
X174878987Y-118638700D01*
X174881526Y-118658797D01*
X174884445Y-118666168D01*
X174884445Y-118666170D01*
X174897804Y-118699912D01*
X174901649Y-118711142D01*
X174913982Y-118753593D01*
X174918015Y-118760412D01*
X174918017Y-118760417D01*
X174924293Y-118771028D01*
X174932988Y-118788776D01*
X174940448Y-118807617D01*
X174945110Y-118814033D01*
X174945110Y-118814034D01*
X174966436Y-118843387D01*
X174972952Y-118853307D01*
X174984434Y-118872721D01*
X174995458Y-118891362D01*
X175009779Y-118905683D01*
X175022619Y-118920716D01*
X175034528Y-118937107D01*
X175066937Y-118963918D01*
X175068605Y-118965298D01*
X175077384Y-118973288D01*
X175289001Y-119184905D01*
X175323027Y-119247217D01*
X175317962Y-119318032D01*
X175275415Y-119374868D01*
X175208895Y-119399679D01*
X175199906Y-119400000D01*
X171473417Y-119400000D01*
X171405296Y-119379998D01*
X171358803Y-119326342D01*
X171352268Y-119308627D01*
X171350361Y-119301955D01*
X171346783Y-119285191D01*
X171343870Y-119264848D01*
X171343867Y-119264838D01*
X171342595Y-119255955D01*
X171331979Y-119232605D01*
X171325536Y-119215093D01*
X171320954Y-119199063D01*
X171318488Y-119190435D01*
X171302726Y-119165452D01*
X171294596Y-119150386D01*
X171282367Y-119123490D01*
X171265626Y-119104061D01*
X171254521Y-119089053D01*
X171245630Y-119074961D01*
X171240840Y-119067369D01*
X171218703Y-119047818D01*
X171206659Y-119035626D01*
X171193239Y-119020051D01*
X171193237Y-119020050D01*
X171187381Y-119013253D01*
X171179853Y-119008374D01*
X171179850Y-119008371D01*
X171165861Y-118999304D01*
X171150987Y-118988014D01*
X171138502Y-118976988D01*
X171131772Y-118971044D01*
X171123646Y-118967229D01*
X171123645Y-118967228D01*
X171117979Y-118964568D01*
X171105034Y-118958490D01*
X171090065Y-118950176D01*
X171065273Y-118934107D01*
X171040709Y-118926761D01*
X171023264Y-118920099D01*
X171018827Y-118918016D01*
X171000052Y-118909201D01*
X170970870Y-118904657D01*
X170954151Y-118900874D01*
X170934464Y-118894986D01*
X170934461Y-118894985D01*
X170925859Y-118892413D01*
X170916884Y-118892358D01*
X170916883Y-118892358D01*
X170910190Y-118892317D01*
X170891444Y-118892203D01*
X170890672Y-118892170D01*
X170889577Y-118892000D01*
X170858702Y-118892000D01*
X170857932Y-118891998D01*
X170784284Y-118891548D01*
X170784283Y-118891548D01*
X170780348Y-118891524D01*
X170779004Y-118891908D01*
X170777659Y-118892000D01*
X169434000Y-118892000D01*
X169365879Y-118871998D01*
X169319386Y-118818342D01*
X169308000Y-118766000D01*
X169308000Y-116508702D01*
X169308002Y-116507932D01*
X169308421Y-116439322D01*
X169308476Y-116430348D01*
X169306010Y-116421719D01*
X169306009Y-116421714D01*
X169300361Y-116401952D01*
X169296783Y-116385191D01*
X169293870Y-116364848D01*
X169293867Y-116364838D01*
X169292595Y-116355955D01*
X169281979Y-116332605D01*
X169275536Y-116315093D01*
X169270954Y-116299063D01*
X169268488Y-116290435D01*
X169252726Y-116265452D01*
X169244596Y-116250386D01*
X169232367Y-116223490D01*
X169215626Y-116204061D01*
X169204521Y-116189053D01*
X169195630Y-116174961D01*
X169190840Y-116167369D01*
X169168703Y-116147818D01*
X169156659Y-116135626D01*
X169143239Y-116120051D01*
X169143237Y-116120050D01*
X169137381Y-116113253D01*
X169129853Y-116108374D01*
X169129850Y-116108371D01*
X169115861Y-116099304D01*
X169100987Y-116088014D01*
X169088502Y-116076988D01*
X169081772Y-116071044D01*
X169073646Y-116067229D01*
X169073645Y-116067228D01*
X169067979Y-116064568D01*
X169055034Y-116058490D01*
X169040065Y-116050176D01*
X169015273Y-116034107D01*
X168990709Y-116026761D01*
X168973264Y-116020099D01*
X168968827Y-116018016D01*
X168950052Y-116009201D01*
X168920870Y-116004657D01*
X168904151Y-116000874D01*
X168884464Y-115994986D01*
X168884461Y-115994985D01*
X168875859Y-115992413D01*
X168866884Y-115992358D01*
X168866883Y-115992358D01*
X168860190Y-115992317D01*
X168841444Y-115992203D01*
X168840672Y-115992170D01*
X168839577Y-115992000D01*
X168808702Y-115992000D01*
X168807932Y-115991998D01*
X168734284Y-115991548D01*
X168734283Y-115991548D01*
X168730348Y-115991524D01*
X168729004Y-115991908D01*
X168727659Y-115992000D01*
X166134000Y-115992000D01*
X166065879Y-115971998D01*
X166019386Y-115918342D01*
X166008000Y-115866000D01*
X166008000Y-83634000D01*
X166028002Y-83565879D01*
X166081658Y-83519386D01*
X166134000Y-83508000D01*
X168091298Y-83508000D01*
X168092069Y-83508002D01*
X168169652Y-83508476D01*
X168178281Y-83506010D01*
X168178286Y-83506009D01*
X168198048Y-83500361D01*
X168214809Y-83496783D01*
X168235152Y-83493870D01*
X168235162Y-83493867D01*
X168244045Y-83492595D01*
X168267395Y-83481979D01*
X168284907Y-83475536D01*
X168300937Y-83470954D01*
X168309565Y-83468488D01*
X168334548Y-83452726D01*
X168349614Y-83444596D01*
X168376510Y-83432367D01*
X168395939Y-83415626D01*
X168410947Y-83404521D01*
X168425039Y-83395630D01*
X168432631Y-83390840D01*
X168452182Y-83368703D01*
X168464374Y-83356659D01*
X168479949Y-83343239D01*
X168479950Y-83343237D01*
X168486747Y-83337381D01*
X168491626Y-83329853D01*
X168491629Y-83329850D01*
X168500696Y-83315861D01*
X168511986Y-83300987D01*
X168523012Y-83288502D01*
X168528956Y-83281772D01*
X168541510Y-83255034D01*
X168549824Y-83240065D01*
X168565893Y-83215273D01*
X168573239Y-83190709D01*
X168579901Y-83173264D01*
X168586983Y-83158179D01*
X168590799Y-83150052D01*
X168595343Y-83120870D01*
X168599126Y-83104151D01*
X168605014Y-83084464D01*
X168605015Y-83084461D01*
X168607587Y-83075859D01*
X168607797Y-83041444D01*
X168607830Y-83040672D01*
X168608000Y-83039577D01*
X168608000Y-83008702D01*
X168608002Y-83007932D01*
X168608452Y-82934284D01*
X168608452Y-82934283D01*
X168608476Y-82930348D01*
X168608092Y-82929004D01*
X168608000Y-82927659D01*
X168608000Y-76634000D01*
X168628002Y-76565879D01*
X168681658Y-76519386D01*
X168734000Y-76508000D01*
X198266000Y-76508000D01*
X198334121Y-76528002D01*
G37*
%TD.AperFunction*%
%TD*%
M02*
