%TF.GenerationSoftware,KiCad,Pcbnew,(6.0.1)*%
%TF.CreationDate,2022-02-03T01:47:34-08:00*%
%TF.ProjectId,sd2ps2,73643270-7332-42e6-9b69-6361645f7063,rev?*%
%TF.SameCoordinates,Original*%
%TF.FileFunction,Paste,Top*%
%TF.FilePolarity,Positive*%
%FSLAX46Y46*%
G04 Gerber Fmt 4.6, Leading zero omitted, Abs format (unit mm)*
G04 Created by KiCad (PCBNEW (6.0.1)) date 2022-02-03 01:47:34*
%MOMM*%
%LPD*%
G01*
G04 APERTURE LIST*
G04 Aperture macros list*
%AMRoundRect*
0 Rectangle with rounded corners*
0 $1 Rounding radius*
0 $2 $3 $4 $5 $6 $7 $8 $9 X,Y pos of 4 corners*
0 Add a 4 corners polygon primitive as box body*
4,1,4,$2,$3,$4,$5,$6,$7,$8,$9,$2,$3,0*
0 Add four circle primitives for the rounded corners*
1,1,$1+$1,$2,$3*
1,1,$1+$1,$4,$5*
1,1,$1+$1,$6,$7*
1,1,$1+$1,$8,$9*
0 Add four rect primitives between the rounded corners*
20,1,$1+$1,$2,$3,$4,$5,0*
20,1,$1+$1,$4,$5,$6,$7,0*
20,1,$1+$1,$6,$7,$8,$9,0*
20,1,$1+$1,$8,$9,$2,$3,0*%
G04 Aperture macros list end*
%ADD10C,0.120000*%
%ADD11RoundRect,0.250000X-0.325000X-0.650000X0.325000X-0.650000X0.325000X0.650000X-0.325000X0.650000X0*%
%ADD12R,0.700000X1.200000*%
%ADD13R,1.000000X1.200000*%
%ADD14R,1.000000X0.800000*%
%ADD15R,1.000000X2.800000*%
%ADD16R,1.300000X1.900000*%
%ADD17R,0.900000X0.900000*%
%ADD18R,1.500000X1.500000*%
%ADD19RoundRect,0.250000X0.625000X-0.312500X0.625000X0.312500X-0.625000X0.312500X-0.625000X-0.312500X0*%
%ADD20R,0.400000X0.450000*%
%ADD21R,0.500000X0.450000*%
G04 APERTURE END LIST*
D10*
%TO.C,Q1*%
X172200000Y-91300000D02*
X172200000Y-90300000D01*
X172200000Y-90300000D02*
X172800000Y-90300000D01*
X172800000Y-90300000D02*
X172800000Y-91300000D01*
X172800000Y-91300000D02*
X172200000Y-91300000D01*
G36*
X172800000Y-91300000D02*
G01*
X172200000Y-91300000D01*
X172200000Y-90300000D01*
X172800000Y-90300000D01*
X172800000Y-91300000D01*
G37*
X172800000Y-91300000D02*
X172200000Y-91300000D01*
X172200000Y-90300000D01*
X172800000Y-90300000D01*
X172800000Y-91300000D01*
X173100000Y-88700000D02*
X173100000Y-87700000D01*
X173100000Y-87700000D02*
X173700000Y-87700000D01*
X173700000Y-87700000D02*
X173700000Y-88700000D01*
X173700000Y-88700000D02*
X173100000Y-88700000D01*
G36*
X173700000Y-88700000D02*
G01*
X173100000Y-88700000D01*
X173100000Y-87700000D01*
X173700000Y-87700000D01*
X173700000Y-88700000D01*
G37*
X173700000Y-88700000D02*
X173100000Y-88700000D01*
X173100000Y-87700000D01*
X173700000Y-87700000D01*
X173700000Y-88700000D01*
X171300000Y-88700000D02*
X171300000Y-87700000D01*
X171300000Y-87700000D02*
X171900000Y-87700000D01*
X171900000Y-87700000D02*
X171900000Y-88700000D01*
X171900000Y-88700000D02*
X171300000Y-88700000D01*
G36*
X171900000Y-88700000D02*
G01*
X171300000Y-88700000D01*
X171300000Y-87700000D01*
X171900000Y-87700000D01*
X171900000Y-88700000D01*
G37*
X171900000Y-88700000D02*
X171300000Y-88700000D01*
X171300000Y-87700000D01*
X171900000Y-87700000D01*
X171900000Y-88700000D01*
%TO.C,Q2*%
X173100000Y-95450000D02*
X173100000Y-94450000D01*
X173100000Y-94450000D02*
X173700000Y-94450000D01*
X173700000Y-94450000D02*
X173700000Y-95450000D01*
X173700000Y-95450000D02*
X173100000Y-95450000D01*
G36*
X173700000Y-95450000D02*
G01*
X173100000Y-95450000D01*
X173100000Y-94450000D01*
X173700000Y-94450000D01*
X173700000Y-95450000D01*
G37*
X173700000Y-95450000D02*
X173100000Y-95450000D01*
X173100000Y-94450000D01*
X173700000Y-94450000D01*
X173700000Y-95450000D01*
X171300000Y-95450000D02*
X171300000Y-94450000D01*
X171300000Y-94450000D02*
X171900000Y-94450000D01*
X171900000Y-94450000D02*
X171900000Y-95450000D01*
X171900000Y-95450000D02*
X171300000Y-95450000D01*
G36*
X171900000Y-95450000D02*
G01*
X171300000Y-95450000D01*
X171300000Y-94450000D01*
X171900000Y-94450000D01*
X171900000Y-95450000D01*
G37*
X171900000Y-95450000D02*
X171300000Y-95450000D01*
X171300000Y-94450000D01*
X171900000Y-94450000D01*
X171900000Y-95450000D01*
X172200000Y-98050000D02*
X172200000Y-97050000D01*
X172200000Y-97050000D02*
X172800000Y-97050000D01*
X172800000Y-97050000D02*
X172800000Y-98050000D01*
X172800000Y-98050000D02*
X172200000Y-98050000D01*
G36*
X172800000Y-98050000D02*
G01*
X172200000Y-98050000D01*
X172200000Y-97050000D01*
X172800000Y-97050000D01*
X172800000Y-98050000D01*
G37*
X172800000Y-98050000D02*
X172200000Y-98050000D01*
X172200000Y-97050000D01*
X172800000Y-97050000D01*
X172800000Y-98050000D01*
%TD*%
D11*
%TO.C,C1*%
X187025000Y-95750000D03*
X189975000Y-95750000D03*
%TD*%
D12*
%TO.C,J2*%
X183975000Y-92162000D03*
X185075000Y-92162000D03*
X186175000Y-92162000D03*
X187275000Y-92162000D03*
X188375000Y-92162000D03*
X189475000Y-92162000D03*
X190575000Y-92162000D03*
X191675000Y-92162000D03*
D13*
X182425000Y-92162000D03*
D12*
X192625000Y-92162000D03*
D13*
X193575000Y-87862000D03*
D14*
X193575000Y-81663000D03*
D15*
X193575000Y-77513000D03*
D16*
X180075000Y-77062000D03*
%TD*%
D17*
%TO.C,LED1*%
X175050000Y-78150000D03*
D18*
X176800000Y-77500000D03*
X173300000Y-77500000D03*
%TD*%
D19*
%TO.C,R1*%
X172250000Y-115212500D03*
X172250000Y-112287500D03*
%TD*%
%TO.C,R2*%
X174250000Y-83212500D03*
X174250000Y-80287500D03*
%TD*%
%TO.C,R3*%
X176750000Y-83212500D03*
X176750000Y-80287500D03*
%TD*%
D20*
%TO.C,Q1*%
X172900000Y-88925000D03*
X172100000Y-88925000D03*
D21*
X172500000Y-90075000D03*
%TD*%
D20*
%TO.C,Q2*%
X172900000Y-95675000D03*
X172100000Y-95675000D03*
D21*
X172500000Y-96825000D03*
%TD*%
M02*
