M48
; DRILL file {KiCad (6.0.1)} date Thu Feb  3 01:48:42 2022
; FORMAT={-:-/ absolute / metric / decimal}
; #@! TF.CreationDate,2022-02-03T01:48:42-08:00
; #@! TF.GenerationSoftware,Kicad,Pcbnew,(6.0.1)
; #@! TF.FileFunction,Plated,1,2,PTH
FMAT,2
METRIC
; #@! TA.AperFunction,Plated,PTH,ViaDrill
T1C0.400
%
G90
G05
T1
X167.5Y-85.0
X167.5Y-87.5
X167.5Y-90.0
X167.5Y-92.5
X167.5Y-95.0
X167.5Y-97.5
X167.5Y-100.0
X167.5Y-102.5
X167.5Y-105.0
X167.5Y-107.5
X167.5Y-110.0
X167.5Y-112.5
X167.5Y-115.0
X170.0Y-77.5
X170.0Y-80.0
X170.0Y-82.5
X170.0Y-105.0
X170.0Y-107.5
X170.0Y-110.0
X170.0Y-112.5
X170.0Y-115.0
X174.0Y-105.0
X174.0Y-107.5
X174.0Y-110.0
X175.0Y-96.25
X175.25Y-87.25
X176.25Y-119.25
X176.5Y-115.75
X178.0Y-105.0
X178.0Y-107.5
X178.0Y-110.0
X180.5Y-105.0
X180.5Y-107.5
X180.5Y-110.0
X184.0Y-105.0
X184.0Y-107.5
X184.0Y-110.0
X185.0Y-95.25
X186.5Y-107.5
X187.75Y-98.75
X188.75Y-89.75
X189.5Y-105.0
X189.5Y-110.0
X190.5Y-89.75
X193.0Y-118.5
X194.75Y-118.5
X197.5Y-77.5
X197.5Y-80.0
X197.5Y-82.5
X197.5Y-85.0
X200.0Y-85.0
X200.0Y-87.5
X200.0Y-90.0
X200.0Y-92.5
X200.0Y-95.0
X200.0Y-97.5
X200.0Y-100.0
X200.0Y-102.5
X200.0Y-105.0
X200.0Y-107.5
X200.0Y-110.0
X200.0Y-112.5
T0
M30
