%FSLAX45Y45*%
G04 Gerber Fmt 4.5, Leading zero omitted, Abs format (unit mm)*
G04 Created by KiCad (PCBNEW (6.0.1)) date 2022-02-03 01:48:56*
%MOMM*%
%LPD*%
G01*
G04 APERTURE LIST*
%TA.AperFunction,Profile*%
%ADD10C,0.050000*%
%TD*%
%ADD11C,0.200000*%
G04 APERTURE END LIST*
D10*
X19015000Y-11940000D02*
X19015000Y-12850000D01*
X17965000Y-11940000D02*
X17965000Y-12850000D01*
X20150000Y-11650000D02*
X19820000Y-11650000D01*
X18125000Y-12850000D02*
X18125000Y-11940000D01*
X19820000Y-12850000D02*
X19175000Y-12850000D01*
X17965000Y-12850000D02*
X17085000Y-12850000D01*
X19820000Y-11650000D02*
X19820000Y-12850000D01*
X19175000Y-11940000D02*
X19015000Y-11940000D01*
X16880000Y-11940000D02*
X16880000Y-11650000D01*
X18125000Y-11940000D02*
X17965000Y-11940000D01*
X19015000Y-12850000D02*
X18125000Y-12850000D01*
X19175000Y-12850000D02*
X19175000Y-11940000D01*
X17085000Y-11940000D02*
X16880000Y-11940000D01*
X19890000Y-8300000D02*
X20150000Y-8300000D01*
X19890000Y-7600000D02*
X19890000Y-8300000D01*
X20150000Y-8300000D02*
X20150000Y-11650000D01*
X16550000Y-11650000D02*
X16550000Y-8300000D01*
X16880000Y-11650000D02*
X16550000Y-11650000D01*
X17085000Y-11940000D02*
X17085000Y-12850000D01*
X16810000Y-8300000D02*
X16810000Y-7600000D01*
X16550000Y-8300000D02*
X16810000Y-8300000D01*
X16810000Y-7600000D02*
X19890000Y-7600000D01*
D11*
X16805119Y-13162976D02*
X16805119Y-12962976D01*
X16852738Y-12962976D01*
X16881310Y-12972500D01*
X16900357Y-12991548D01*
X16909881Y-13010595D01*
X16919405Y-13048690D01*
X16919405Y-13077262D01*
X16909881Y-13115357D01*
X16900357Y-13134405D01*
X16881310Y-13153452D01*
X16852738Y-13162976D01*
X16805119Y-13162976D01*
X17005119Y-13162976D02*
X17005119Y-13029643D01*
X17005119Y-13067738D02*
X17014643Y-13048690D01*
X17024167Y-13039167D01*
X17043214Y-13029643D01*
X17062262Y-13029643D01*
X17128929Y-13162976D02*
X17128929Y-13029643D01*
X17128929Y-12962976D02*
X17119405Y-12972500D01*
X17128929Y-12982024D01*
X17138452Y-12972500D01*
X17128929Y-12962976D01*
X17128929Y-12982024D01*
X17252738Y-13162976D02*
X17233690Y-13153452D01*
X17224167Y-13134405D01*
X17224167Y-12962976D01*
X17357500Y-13162976D02*
X17338452Y-13153452D01*
X17328929Y-13134405D01*
X17328929Y-12962976D01*
X17586071Y-13162976D02*
X17586071Y-12962976D01*
X17652738Y-13105833D01*
X17719405Y-12962976D01*
X17719405Y-13162976D01*
X17900357Y-13162976D02*
X17900357Y-13058214D01*
X17890833Y-13039167D01*
X17871786Y-13029643D01*
X17833690Y-13029643D01*
X17814643Y-13039167D01*
X17900357Y-13153452D02*
X17881310Y-13162976D01*
X17833690Y-13162976D01*
X17814643Y-13153452D01*
X17805119Y-13134405D01*
X17805119Y-13115357D01*
X17814643Y-13096309D01*
X17833690Y-13086786D01*
X17881310Y-13086786D01*
X17900357Y-13077262D01*
X17995595Y-13029643D02*
X17995595Y-13229643D01*
X17995595Y-13039167D02*
X18014643Y-13029643D01*
X18052738Y-13029643D01*
X18071786Y-13039167D01*
X18081310Y-13048690D01*
X18090833Y-13067738D01*
X18090833Y-13124881D01*
X18081310Y-13143928D01*
X18071786Y-13153452D01*
X18052738Y-13162976D01*
X18014643Y-13162976D01*
X17995595Y-13153452D01*
X18176548Y-13143928D02*
X18186071Y-13153452D01*
X18176548Y-13162976D01*
X18167024Y-13153452D01*
X18176548Y-13143928D01*
X18176548Y-13162976D01*
X18176548Y-13039167D02*
X18186071Y-13048690D01*
X18176548Y-13058214D01*
X18167024Y-13048690D01*
X18176548Y-13039167D01*
X18176548Y-13058214D01*
M02*
