%TF.GenerationSoftware,KiCad,Pcbnew,(6.0.1)*%
%TF.CreationDate,2022-02-03T01:47:34-08:00*%
%TF.ProjectId,sd2ps2,73643270-7332-42e6-9b69-6361645f7063,rev?*%
%TF.SameCoordinates,Original*%
%TF.FileFunction,Copper,L1,Top*%
%TF.FilePolarity,Positive*%
%FSLAX46Y46*%
G04 Gerber Fmt 4.6, Leading zero omitted, Abs format (unit mm)*
G04 Created by KiCad (PCBNEW (6.0.1)) date 2022-02-03 01:47:34*
%MOMM*%
%LPD*%
G01*
G04 APERTURE LIST*
G04 Aperture macros list*
%AMRoundRect*
0 Rectangle with rounded corners*
0 $1 Rounding radius*
0 $2 $3 $4 $5 $6 $7 $8 $9 X,Y pos of 4 corners*
0 Add a 4 corners polygon primitive as box body*
4,1,4,$2,$3,$4,$5,$6,$7,$8,$9,$2,$3,0*
0 Add four circle primitives for the rounded corners*
1,1,$1+$1,$2,$3*
1,1,$1+$1,$4,$5*
1,1,$1+$1,$6,$7*
1,1,$1+$1,$8,$9*
0 Add four rect primitives between the rounded corners*
20,1,$1+$1,$2,$3,$4,$5,0*
20,1,$1+$1,$4,$5,$6,$7,0*
20,1,$1+$1,$6,$7,$8,$9,0*
20,1,$1+$1,$8,$9,$2,$3,0*%
G04 Aperture macros list end*
%TA.AperFunction,SMDPad,CuDef*%
%ADD10RoundRect,0.250000X-0.325000X-0.650000X0.325000X-0.650000X0.325000X0.650000X-0.325000X0.650000X0*%
%TD*%
%TA.AperFunction,SMDPad,CuDef*%
%ADD11R,1.500000X4.700000*%
%TD*%
%TA.AperFunction,SMDPad,CuDef*%
%ADD12R,1.500000X5.500000*%
%TD*%
%TA.AperFunction,SMDPad,CuDef*%
%ADD13R,1.400000X5.500000*%
%TD*%
%TA.AperFunction,SMDPad,CuDef*%
%ADD14R,0.700000X1.200000*%
%TD*%
%TA.AperFunction,SMDPad,CuDef*%
%ADD15R,1.000000X1.200000*%
%TD*%
%TA.AperFunction,SMDPad,CuDef*%
%ADD16R,1.000000X0.800000*%
%TD*%
%TA.AperFunction,SMDPad,CuDef*%
%ADD17R,1.000000X2.800000*%
%TD*%
%TA.AperFunction,SMDPad,CuDef*%
%ADD18R,1.300000X1.900000*%
%TD*%
%TA.AperFunction,SMDPad,CuDef*%
%ADD19R,0.900000X0.900000*%
%TD*%
%TA.AperFunction,SMDPad,CuDef*%
%ADD20R,1.500000X1.500000*%
%TD*%
%TA.AperFunction,SMDPad,CuDef*%
%ADD21RoundRect,0.250000X0.625000X-0.312500X0.625000X0.312500X-0.625000X0.312500X-0.625000X-0.312500X0*%
%TD*%
%TA.AperFunction,SMDPad,CuDef*%
%ADD22R,0.400000X0.450000*%
%TD*%
%TA.AperFunction,SMDPad,CuDef*%
%ADD23R,1.000000X1.900000*%
%TD*%
%TA.AperFunction,SMDPad,CuDef*%
%ADD24R,0.500000X0.450000*%
%TD*%
%TA.AperFunction,SMDPad,CuDef*%
%ADD25R,0.800000X1.900000*%
%TD*%
%TA.AperFunction,ViaPad*%
%ADD26C,0.800000*%
%TD*%
%TA.AperFunction,Conductor*%
%ADD27C,0.500000*%
%TD*%
%TA.AperFunction,Conductor*%
%ADD28C,0.250000*%
%TD*%
G04 APERTURE END LIST*
D10*
%TO.P,C1,1*%
%TO.N,+3V3*%
X187025000Y-95750000D03*
%TO.P,C1,2*%
%TO.N,GND*%
X189975000Y-95750000D03*
%TD*%
D11*
%TO.P,J1,1*%
%TO.N,/DO*%
X195450000Y-125150000D03*
%TO.P,J1,2*%
%TO.N,/DI*%
X192950000Y-125150000D03*
D12*
%TO.P,J1,3*%
%TO.N,N/C*%
X187450000Y-125550000D03*
%TO.P,J1,4*%
%TO.N,GND*%
X184950000Y-125550000D03*
D13*
%TO.P,J1,5*%
%TO.N,+3V3*%
X182400000Y-125550000D03*
D11*
%TO.P,J1,6*%
%TO.N,/CS*%
X177050000Y-125150000D03*
%TO.P,J1,7*%
%TO.N,/CLK*%
X174550000Y-125150000D03*
%TO.P,J1,8*%
%TO.N,/ACK*%
X172050000Y-125150000D03*
%TD*%
D14*
%TO.P,J2,1*%
%TO.N,N/C*%
X183975000Y-92162000D03*
%TO.P,J2,2*%
%TO.N,/CS*%
X185075000Y-92162000D03*
%TO.P,J2,3*%
%TO.N,/DI*%
X186175000Y-92162000D03*
%TO.P,J2,4*%
%TO.N,+3V3*%
X187275000Y-92162000D03*
%TO.P,J2,5*%
%TO.N,/CLK*%
X188375000Y-92162000D03*
%TO.P,J2,6*%
%TO.N,/DO*%
X189475000Y-92162000D03*
%TO.P,J2,7*%
%TO.N,N/C*%
X190575000Y-92162000D03*
%TO.P,J2,8*%
X191675000Y-92162000D03*
D15*
%TO.P,J2,MP1*%
%TO.N,GND*%
X182425000Y-92162000D03*
D14*
%TO.P,J2,MP2*%
%TO.N,/CD*%
X192625000Y-92162000D03*
D15*
%TO.P,J2,MP3*%
%TO.N,GND*%
X193575000Y-87862000D03*
D16*
%TO.P,J2,MP4*%
%TO.N,+3V3*%
X193575000Y-81663000D03*
D17*
%TO.P,J2,MP5*%
%TO.N,GND*%
X193575000Y-77513000D03*
D18*
%TO.P,J2,MP6*%
X180075000Y-77062000D03*
%TD*%
D19*
%TO.P,LED1,A1*%
%TO.N,Net-(LED1-PadA1)*%
X175050000Y-78150000D03*
D20*
%TO.P,LED1,A2*%
%TO.N,Net-(LED1-PadA2)*%
X176800000Y-77500000D03*
%TO.P,LED1,C1*%
%TO.N,GND*%
X173300000Y-77500000D03*
%TD*%
D21*
%TO.P,R1,1*%
%TO.N,/ACK*%
X172250000Y-115212500D03*
%TO.P,R1,2*%
%TO.N,GND*%
X172250000Y-112287500D03*
%TD*%
%TO.P,R2,1*%
%TO.N,/CD*%
X174250000Y-83212500D03*
%TO.P,R2,2*%
%TO.N,Net-(LED1-PadA1)*%
X174250000Y-80287500D03*
%TD*%
%TO.P,R3,1*%
%TO.N,Net-(Q2-Pad2)*%
X176750000Y-83212500D03*
%TO.P,R3,2*%
%TO.N,Net-(LED1-PadA2)*%
X176750000Y-80287500D03*
%TD*%
D22*
%TO.P,Q1,1*%
%TO.N,/CD*%
X172900000Y-88925000D03*
D23*
X173400000Y-88000000D03*
%TO.P,Q1,2*%
%TO.N,GND*%
X171600000Y-88000000D03*
D22*
X172100000Y-88925000D03*
D24*
%TO.P,Q1,3*%
%TO.N,/ACK*%
X172500000Y-90075000D03*
D25*
X172500000Y-91000000D03*
%TD*%
D22*
%TO.P,Q2,1*%
%TO.N,/CS*%
X172900000Y-95675000D03*
D23*
X173400000Y-94750000D03*
%TO.P,Q2,2*%
%TO.N,Net-(Q2-Pad2)*%
X171600000Y-94750000D03*
D22*
X172100000Y-95675000D03*
D25*
%TO.P,Q2,3*%
%TO.N,+3V3*%
X172500000Y-97750000D03*
D24*
X172500000Y-96825000D03*
%TD*%
D26*
%TO.N,GND*%
X178000000Y-105000000D03*
X200000000Y-97500000D03*
X200000000Y-107500000D03*
X170000000Y-115000000D03*
X200000000Y-110000000D03*
X167500000Y-95000000D03*
X170000000Y-112500000D03*
X174000000Y-105000000D03*
X170000000Y-110000000D03*
X200000000Y-100000000D03*
X197500000Y-80000000D03*
X200000000Y-112500000D03*
X167500000Y-100000000D03*
X200000000Y-87500000D03*
X174000000Y-110000000D03*
X167500000Y-97500000D03*
X170000000Y-77500000D03*
X178000000Y-110000000D03*
X167500000Y-110000000D03*
X197500000Y-77500000D03*
X200000000Y-90000000D03*
X167500000Y-102500000D03*
X197500000Y-82500000D03*
X189500000Y-110000000D03*
X180500000Y-105000000D03*
X167500000Y-112500000D03*
X180500000Y-110000000D03*
X170000000Y-82500000D03*
X170000000Y-80000000D03*
X200000000Y-92500000D03*
X170000000Y-105000000D03*
X167500000Y-90000000D03*
X200000000Y-102500000D03*
X197500000Y-85000000D03*
X180500000Y-107500000D03*
X189500000Y-105000000D03*
X174000000Y-107500000D03*
X167500000Y-107500000D03*
X186500000Y-107500000D03*
X170000000Y-107500000D03*
X167500000Y-105000000D03*
X167500000Y-87500000D03*
X200000000Y-85000000D03*
X184000000Y-107500000D03*
X167500000Y-115000000D03*
X200000000Y-95000000D03*
X167500000Y-85000000D03*
X178000000Y-107500000D03*
X167500000Y-92500000D03*
X184000000Y-105000000D03*
X200000000Y-105000000D03*
X184000000Y-110000000D03*
%TO.N,/CLK*%
X188750000Y-89750000D03*
X176500000Y-115750000D03*
%TO.N,/CS*%
X175000000Y-96250000D03*
X176250000Y-119250000D03*
%TO.N,/DI*%
X185000000Y-95250008D03*
X193000000Y-118500000D03*
%TO.N,/DO*%
X187750016Y-98750000D03*
X194750000Y-118500000D03*
%TO.N,/CD*%
X175250000Y-87250000D03*
X190500000Y-89749996D03*
%TD*%
D27*
%TO.N,+3V3*%
X186899999Y-90686999D02*
X187275000Y-91062000D01*
X182400000Y-125550000D02*
X182400000Y-98150000D01*
X182000000Y-97750000D02*
X185050000Y-97750000D01*
X187275000Y-91062000D02*
X187275000Y-92162000D01*
X187275000Y-95525000D02*
X187250000Y-95550000D01*
X188587000Y-81663000D02*
X186899999Y-83350001D01*
X193575000Y-81663000D02*
X188587000Y-81663000D01*
X182400000Y-98150000D02*
X182000000Y-97750000D01*
X186899999Y-83350001D02*
X186899999Y-90686999D01*
X185050000Y-97750000D02*
X187250000Y-95550000D01*
X187275000Y-92162000D02*
X187275000Y-95525000D01*
X172500000Y-97750000D02*
X182000000Y-97750000D01*
D28*
%TO.N,/ACK*%
X172050000Y-125150000D02*
X172050000Y-117950000D01*
X168800000Y-112324614D02*
X168800000Y-91800000D01*
X172050000Y-117950000D02*
X172050000Y-115412500D01*
X168800000Y-91800000D02*
X169600000Y-91000000D01*
X171687886Y-115212500D02*
X168800000Y-112324614D01*
X172250000Y-115212500D02*
X171687886Y-115212500D01*
X172050000Y-115412500D02*
X172250000Y-115212500D01*
X169600000Y-91000000D02*
X172500000Y-91000000D01*
%TO.N,/CLK*%
X188375000Y-90125000D02*
X188750000Y-89750000D01*
X176500000Y-115750000D02*
X174550000Y-117700000D01*
X174550000Y-117700000D02*
X174550000Y-125150000D01*
X188375000Y-92162000D02*
X188375000Y-90125000D01*
%TO.N,/CS*%
X177050000Y-120050000D02*
X176250000Y-119250000D01*
X174750000Y-94750000D02*
X183176998Y-94750000D01*
X173450000Y-94750000D02*
X174750000Y-94750000D01*
X185075000Y-92851998D02*
X185075000Y-92162000D01*
X177050000Y-125150000D02*
X177050000Y-120050000D01*
X175000000Y-95000000D02*
X174750000Y-94750000D01*
X175000000Y-96250000D02*
X175000000Y-95000000D01*
X183176998Y-94750000D02*
X185075000Y-92851998D01*
%TO.N,/DI*%
X193000000Y-125100000D02*
X192950000Y-125150000D01*
X186175000Y-92162000D02*
X186175000Y-94075008D01*
X193000000Y-118500000D02*
X193000000Y-125100000D01*
X186175000Y-94075008D02*
X185000000Y-95250008D01*
%TO.N,/DO*%
X195450000Y-119200000D02*
X195450000Y-125150000D01*
X194750000Y-118500000D02*
X195450000Y-119200000D01*
X189475000Y-93012000D02*
X188000006Y-94486994D01*
X188000006Y-98500010D02*
X187750016Y-98750000D01*
X189475000Y-92162000D02*
X189475000Y-93012000D01*
X188000006Y-94486994D02*
X188000006Y-98500010D01*
%TO.N,Net-(LED1-PadA2)*%
X176750000Y-80287500D02*
X176750000Y-77750000D01*
X176750000Y-77750000D02*
X177000000Y-77500000D01*
%TO.N,Net-(LED1-PadA1)*%
X174250000Y-80287500D02*
X175250000Y-79287500D01*
X175250000Y-79287500D02*
X175250000Y-78150000D01*
%TO.N,/CD*%
X174250000Y-87000000D02*
X174250000Y-87200000D01*
X192625000Y-91312000D02*
X191062996Y-89749996D01*
X174250000Y-87200000D02*
X173450000Y-88000000D01*
X174500000Y-87250000D02*
X174250000Y-87000000D01*
X174250000Y-83212500D02*
X174250000Y-87000000D01*
X192625000Y-92162000D02*
X192625000Y-91312000D01*
X191062996Y-89749996D02*
X190500000Y-89749996D01*
X175250000Y-87250000D02*
X174500000Y-87250000D01*
%TO.N,Net-(Q2-Pad2)*%
X172000000Y-93000000D02*
X171550000Y-93450000D01*
X171550000Y-93450000D02*
X171550000Y-94750000D01*
X176750000Y-91750000D02*
X175500000Y-93000000D01*
X176750000Y-83212500D02*
X176750000Y-91750000D01*
X175500000Y-93000000D02*
X172000000Y-93000000D01*
%TD*%
%TA.AperFunction,Conductor*%
%TO.N,GND*%
G36*
X171990757Y-76528002D02*
G01*
X172037250Y-76581658D01*
X172047899Y-76647607D01*
X172042369Y-76698512D01*
X172042000Y-76705328D01*
X172042000Y-77227885D01*
X172046475Y-77243124D01*
X172047865Y-77244329D01*
X172055548Y-77246000D01*
X173428000Y-77246000D01*
X173496121Y-77266002D01*
X173542614Y-77319658D01*
X173554000Y-77372000D01*
X173554000Y-78739884D01*
X173558475Y-78755123D01*
X173559865Y-78756328D01*
X173567548Y-78757999D01*
X174028803Y-78757999D01*
X174096924Y-78778001D01*
X174143417Y-78831657D01*
X174145990Y-78837854D01*
X174146234Y-78838300D01*
X174149385Y-78846705D01*
X174154765Y-78853884D01*
X174154767Y-78853887D01*
X174216500Y-78936256D01*
X174236739Y-78963261D01*
X174243919Y-78968642D01*
X174271982Y-78989674D01*
X174314497Y-79046533D01*
X174319523Y-79117351D01*
X174285463Y-79179645D01*
X174223132Y-79213635D01*
X174196417Y-79216500D01*
X173574600Y-79216500D01*
X173571354Y-79216837D01*
X173571350Y-79216837D01*
X173475692Y-79226762D01*
X173475688Y-79226763D01*
X173468834Y-79227474D01*
X173462298Y-79229655D01*
X173462296Y-79229655D01*
X173383499Y-79255944D01*
X173301054Y-79283450D01*
X173150652Y-79376522D01*
X173025695Y-79501697D01*
X172932885Y-79652262D01*
X172877203Y-79820139D01*
X172866500Y-79924600D01*
X172866500Y-80650400D01*
X172877474Y-80756166D01*
X172879655Y-80762702D01*
X172879655Y-80762704D01*
X172896230Y-80812385D01*
X172933450Y-80923946D01*
X173026522Y-81074348D01*
X173151697Y-81199305D01*
X173157927Y-81203145D01*
X173157928Y-81203146D01*
X173295090Y-81287694D01*
X173302262Y-81292115D01*
X173382005Y-81318564D01*
X173463611Y-81345632D01*
X173463613Y-81345632D01*
X173470139Y-81347797D01*
X173476975Y-81348497D01*
X173476978Y-81348498D01*
X173520031Y-81352909D01*
X173574600Y-81358500D01*
X174925400Y-81358500D01*
X174928646Y-81358163D01*
X174928650Y-81358163D01*
X175024308Y-81348238D01*
X175024312Y-81348237D01*
X175031166Y-81347526D01*
X175037702Y-81345345D01*
X175037704Y-81345345D01*
X175169806Y-81301272D01*
X175198946Y-81291550D01*
X175349348Y-81198478D01*
X175395062Y-81152684D01*
X175410828Y-81136891D01*
X175473111Y-81102812D01*
X175543931Y-81107815D01*
X175589019Y-81136736D01*
X175651697Y-81199305D01*
X175657927Y-81203145D01*
X175657928Y-81203146D01*
X175795090Y-81287694D01*
X175802262Y-81292115D01*
X175882005Y-81318564D01*
X175963611Y-81345632D01*
X175963613Y-81345632D01*
X175970139Y-81347797D01*
X175976975Y-81348497D01*
X175976978Y-81348498D01*
X176020031Y-81352909D01*
X176074600Y-81358500D01*
X177425400Y-81358500D01*
X177428646Y-81358163D01*
X177428650Y-81358163D01*
X177524308Y-81348238D01*
X177524312Y-81348237D01*
X177531166Y-81347526D01*
X177537702Y-81345345D01*
X177537704Y-81345345D01*
X177669806Y-81301272D01*
X177698946Y-81291550D01*
X177849348Y-81198478D01*
X177974305Y-81073303D01*
X177979964Y-81064122D01*
X178063275Y-80928968D01*
X178063276Y-80928966D01*
X178067115Y-80922738D01*
X178122797Y-80754861D01*
X178133500Y-80650400D01*
X178133500Y-79924600D01*
X178122526Y-79818834D01*
X178066550Y-79651054D01*
X177973478Y-79500652D01*
X177848303Y-79375695D01*
X177842072Y-79371854D01*
X177703968Y-79286725D01*
X177703966Y-79286724D01*
X177697738Y-79282885D01*
X177537254Y-79229655D01*
X177536389Y-79229368D01*
X177536387Y-79229368D01*
X177529861Y-79227203D01*
X177523023Y-79226502D01*
X177523021Y-79226502D01*
X177496658Y-79223801D01*
X177430930Y-79196960D01*
X177390148Y-79138845D01*
X177383500Y-79098457D01*
X177383500Y-78957669D01*
X192567001Y-78957669D01*
X192567371Y-78964490D01*
X192572895Y-79015352D01*
X192576521Y-79030604D01*
X192621676Y-79151054D01*
X192630214Y-79166649D01*
X192706715Y-79268724D01*
X192719276Y-79281285D01*
X192821351Y-79357786D01*
X192836946Y-79366324D01*
X192957394Y-79411478D01*
X192972649Y-79415105D01*
X193023514Y-79420631D01*
X193030328Y-79421000D01*
X193302885Y-79421000D01*
X193318124Y-79416525D01*
X193319329Y-79415135D01*
X193321000Y-79407452D01*
X193321000Y-79402884D01*
X193829000Y-79402884D01*
X193833475Y-79418123D01*
X193834865Y-79419328D01*
X193842548Y-79420999D01*
X194119669Y-79420999D01*
X194126490Y-79420629D01*
X194177352Y-79415105D01*
X194192604Y-79411479D01*
X194313054Y-79366324D01*
X194328649Y-79357786D01*
X194430724Y-79281285D01*
X194443285Y-79268724D01*
X194519786Y-79166649D01*
X194528324Y-79151054D01*
X194573478Y-79030606D01*
X194577105Y-79015351D01*
X194582631Y-78964486D01*
X194583000Y-78957672D01*
X194583000Y-77785115D01*
X194578525Y-77769876D01*
X194577135Y-77768671D01*
X194569452Y-77767000D01*
X193847115Y-77767000D01*
X193831876Y-77771475D01*
X193830671Y-77772865D01*
X193829000Y-77780548D01*
X193829000Y-79402884D01*
X193321000Y-79402884D01*
X193321000Y-77785115D01*
X193316525Y-77769876D01*
X193315135Y-77768671D01*
X193307452Y-77767000D01*
X192585116Y-77767000D01*
X192569877Y-77771475D01*
X192568672Y-77772865D01*
X192567001Y-77780548D01*
X192567001Y-78957669D01*
X177383500Y-78957669D01*
X177383500Y-78884500D01*
X177403502Y-78816379D01*
X177457158Y-78769886D01*
X177509500Y-78758500D01*
X177598134Y-78758500D01*
X177660316Y-78751745D01*
X177796705Y-78700615D01*
X177913261Y-78613261D01*
X178000615Y-78496705D01*
X178051745Y-78360316D01*
X178058500Y-78298134D01*
X178058500Y-78056669D01*
X178917001Y-78056669D01*
X178917371Y-78063490D01*
X178922895Y-78114352D01*
X178926521Y-78129604D01*
X178971676Y-78250054D01*
X178980214Y-78265649D01*
X179056715Y-78367724D01*
X179069276Y-78380285D01*
X179171351Y-78456786D01*
X179186946Y-78465324D01*
X179307394Y-78510478D01*
X179322649Y-78514105D01*
X179373514Y-78519631D01*
X179380328Y-78520000D01*
X179802885Y-78520000D01*
X179818124Y-78515525D01*
X179819329Y-78514135D01*
X179821000Y-78506452D01*
X179821000Y-78501884D01*
X180329000Y-78501884D01*
X180333475Y-78517123D01*
X180334865Y-78518328D01*
X180342548Y-78519999D01*
X180769669Y-78519999D01*
X180776490Y-78519629D01*
X180827352Y-78514105D01*
X180842604Y-78510479D01*
X180963054Y-78465324D01*
X180978649Y-78456786D01*
X181080724Y-78380285D01*
X181093285Y-78367724D01*
X181169786Y-78265649D01*
X181178324Y-78250054D01*
X181223478Y-78129606D01*
X181227105Y-78114351D01*
X181232631Y-78063486D01*
X181233000Y-78056672D01*
X181233000Y-77334115D01*
X181228525Y-77318876D01*
X181227135Y-77317671D01*
X181219452Y-77316000D01*
X180347115Y-77316000D01*
X180331876Y-77320475D01*
X180330671Y-77321865D01*
X180329000Y-77329548D01*
X180329000Y-78501884D01*
X179821000Y-78501884D01*
X179821000Y-77334115D01*
X179816525Y-77318876D01*
X179815135Y-77317671D01*
X179807452Y-77316000D01*
X178935116Y-77316000D01*
X178919877Y-77320475D01*
X178918672Y-77321865D01*
X178917001Y-77329548D01*
X178917001Y-78056669D01*
X178058500Y-78056669D01*
X178058500Y-76701866D01*
X178052606Y-76647606D01*
X178065134Y-76577725D01*
X178113455Y-76525709D01*
X178177869Y-76508000D01*
X178791000Y-76508000D01*
X178859121Y-76528002D01*
X178905614Y-76581658D01*
X178917000Y-76634000D01*
X178917000Y-76789885D01*
X178921475Y-76805124D01*
X178922865Y-76806329D01*
X178930548Y-76808000D01*
X181214884Y-76808000D01*
X181230123Y-76803525D01*
X181231328Y-76802135D01*
X181232999Y-76794452D01*
X181232999Y-76634000D01*
X181253001Y-76565879D01*
X181306657Y-76519386D01*
X181358999Y-76508000D01*
X192441000Y-76508000D01*
X192509121Y-76528002D01*
X192555614Y-76581658D01*
X192567000Y-76634000D01*
X192567000Y-77240885D01*
X192571475Y-77256124D01*
X192572865Y-77257329D01*
X192580548Y-77259000D01*
X194564884Y-77259000D01*
X194580123Y-77254525D01*
X194581328Y-77253135D01*
X194582999Y-77245452D01*
X194582999Y-76634000D01*
X194603001Y-76565879D01*
X194656657Y-76519386D01*
X194708999Y-76508000D01*
X198266000Y-76508000D01*
X198334121Y-76528002D01*
X198380614Y-76581658D01*
X198392000Y-76634000D01*
X198392000Y-82991298D01*
X198391998Y-82992068D01*
X198391524Y-83069652D01*
X198393990Y-83078281D01*
X198393991Y-83078286D01*
X198399639Y-83098048D01*
X198403217Y-83114809D01*
X198406130Y-83135152D01*
X198406133Y-83135162D01*
X198407405Y-83144045D01*
X198418021Y-83167395D01*
X198424464Y-83184907D01*
X198431512Y-83209565D01*
X198447274Y-83234548D01*
X198455404Y-83249614D01*
X198467633Y-83276510D01*
X198484374Y-83295939D01*
X198495479Y-83310947D01*
X198509160Y-83332631D01*
X198515888Y-83338573D01*
X198531296Y-83352181D01*
X198543340Y-83364373D01*
X198562619Y-83386747D01*
X198570147Y-83391626D01*
X198570150Y-83391629D01*
X198584139Y-83400696D01*
X198599013Y-83411986D01*
X198618228Y-83428956D01*
X198626354Y-83432771D01*
X198626355Y-83432772D01*
X198632021Y-83435432D01*
X198644966Y-83441510D01*
X198659935Y-83449824D01*
X198684727Y-83465893D01*
X198701650Y-83470954D01*
X198709290Y-83473239D01*
X198726736Y-83479901D01*
X198749948Y-83490799D01*
X198779130Y-83495343D01*
X198795849Y-83499126D01*
X198815536Y-83505014D01*
X198815539Y-83505015D01*
X198824141Y-83507587D01*
X198833116Y-83507642D01*
X198833117Y-83507642D01*
X198839810Y-83507683D01*
X198858556Y-83507797D01*
X198859328Y-83507830D01*
X198860423Y-83508000D01*
X198891298Y-83508000D01*
X198892068Y-83508002D01*
X198965716Y-83508452D01*
X198965717Y-83508452D01*
X198969652Y-83508476D01*
X198970996Y-83508092D01*
X198972341Y-83508000D01*
X200866000Y-83508000D01*
X200934121Y-83528002D01*
X200980614Y-83581658D01*
X200992000Y-83634000D01*
X200992000Y-115866000D01*
X200971998Y-115934121D01*
X200918342Y-115980614D01*
X200866000Y-115992000D01*
X198208702Y-115992000D01*
X198207932Y-115991998D01*
X198207078Y-115991993D01*
X198130348Y-115991524D01*
X198121719Y-115993990D01*
X198121714Y-115993991D01*
X198101952Y-115999639D01*
X198085191Y-116003217D01*
X198064848Y-116006130D01*
X198064838Y-116006133D01*
X198055955Y-116007405D01*
X198032605Y-116018021D01*
X198015093Y-116024464D01*
X198007057Y-116026761D01*
X197990435Y-116031512D01*
X197965452Y-116047274D01*
X197950386Y-116055404D01*
X197923490Y-116067633D01*
X197904061Y-116084374D01*
X197889053Y-116095479D01*
X197867369Y-116109160D01*
X197861427Y-116115888D01*
X197847819Y-116131296D01*
X197835627Y-116143340D01*
X197813253Y-116162619D01*
X197808374Y-116170147D01*
X197808371Y-116170150D01*
X197799304Y-116184139D01*
X197788014Y-116199013D01*
X197771044Y-116218228D01*
X197767229Y-116226354D01*
X197767228Y-116226355D01*
X197764737Y-116231661D01*
X197758490Y-116244966D01*
X197750176Y-116259935D01*
X197734107Y-116284727D01*
X197731535Y-116293327D01*
X197726761Y-116309290D01*
X197720099Y-116326736D01*
X197709201Y-116349948D01*
X197704658Y-116379128D01*
X197700874Y-116395849D01*
X197694986Y-116415536D01*
X197694985Y-116415539D01*
X197692413Y-116424141D01*
X197692358Y-116433116D01*
X197692358Y-116433117D01*
X197692203Y-116458546D01*
X197692170Y-116459328D01*
X197692000Y-116460423D01*
X197692000Y-116491298D01*
X197691998Y-116492068D01*
X197691524Y-116569652D01*
X197691908Y-116570996D01*
X197692000Y-116572341D01*
X197692000Y-119274000D01*
X197671998Y-119342121D01*
X197618342Y-119388614D01*
X197566000Y-119400000D01*
X196209950Y-119400000D01*
X196141829Y-119379998D01*
X196095336Y-119326342D01*
X196084824Y-119264013D01*
X196085701Y-119260091D01*
X196084570Y-119224089D01*
X196083562Y-119192033D01*
X196083500Y-119188075D01*
X196083500Y-119160144D01*
X196082994Y-119156138D01*
X196082061Y-119144292D01*
X196081498Y-119126355D01*
X196080673Y-119100110D01*
X196075022Y-119080658D01*
X196071014Y-119061306D01*
X196069468Y-119049068D01*
X196069467Y-119049066D01*
X196068474Y-119041203D01*
X196052194Y-119000086D01*
X196048359Y-118988885D01*
X196036018Y-118946406D01*
X196031985Y-118939587D01*
X196031983Y-118939582D01*
X196025707Y-118928971D01*
X196017010Y-118911221D01*
X196009552Y-118892383D01*
X195983571Y-118856623D01*
X195977053Y-118846701D01*
X195958578Y-118815460D01*
X195958574Y-118815455D01*
X195954542Y-118808637D01*
X195940218Y-118794313D01*
X195927376Y-118779278D01*
X195915472Y-118762893D01*
X195881406Y-118734711D01*
X195872627Y-118726722D01*
X195697122Y-118551217D01*
X195663096Y-118488905D01*
X195660907Y-118475292D01*
X195644232Y-118316635D01*
X195644232Y-118316633D01*
X195643542Y-118310072D01*
X195584527Y-118128444D01*
X195489040Y-117963056D01*
X195361253Y-117821134D01*
X195262157Y-117749136D01*
X195212094Y-117712763D01*
X195212093Y-117712762D01*
X195206752Y-117708882D01*
X195200724Y-117706198D01*
X195200722Y-117706197D01*
X195038319Y-117633891D01*
X195038318Y-117633891D01*
X195032288Y-117631206D01*
X194938887Y-117611353D01*
X194851944Y-117592872D01*
X194851939Y-117592872D01*
X194845487Y-117591500D01*
X194654513Y-117591500D01*
X194648061Y-117592872D01*
X194648056Y-117592872D01*
X194561113Y-117611353D01*
X194467712Y-117631206D01*
X194461682Y-117633891D01*
X194461681Y-117633891D01*
X194299278Y-117706197D01*
X194299276Y-117706198D01*
X194293248Y-117708882D01*
X194287907Y-117712762D01*
X194287906Y-117712763D01*
X194237843Y-117749136D01*
X194138747Y-117821134D01*
X194010960Y-117963056D01*
X194007659Y-117968774D01*
X193984119Y-118009546D01*
X193932737Y-118058539D01*
X193863023Y-118071975D01*
X193797112Y-118045589D01*
X193765881Y-118009546D01*
X193742341Y-117968774D01*
X193739040Y-117963056D01*
X193611253Y-117821134D01*
X193512157Y-117749136D01*
X193462094Y-117712763D01*
X193462093Y-117712762D01*
X193456752Y-117708882D01*
X193450724Y-117706198D01*
X193450722Y-117706197D01*
X193288319Y-117633891D01*
X193288318Y-117633891D01*
X193282288Y-117631206D01*
X193188887Y-117611353D01*
X193101944Y-117592872D01*
X193101939Y-117592872D01*
X193095487Y-117591500D01*
X192904513Y-117591500D01*
X192898061Y-117592872D01*
X192898056Y-117592872D01*
X192811113Y-117611353D01*
X192717712Y-117631206D01*
X192711682Y-117633891D01*
X192711681Y-117633891D01*
X192549278Y-117706197D01*
X192549276Y-117706198D01*
X192543248Y-117708882D01*
X192537907Y-117712762D01*
X192537906Y-117712763D01*
X192487843Y-117749136D01*
X192388747Y-117821134D01*
X192260960Y-117963056D01*
X192165473Y-118128444D01*
X192106458Y-118310072D01*
X192105768Y-118316633D01*
X192105768Y-118316635D01*
X192098699Y-118383891D01*
X192086496Y-118500000D01*
X192087186Y-118506565D01*
X192094489Y-118576045D01*
X192106458Y-118689928D01*
X192108498Y-118696206D01*
X192136168Y-118781366D01*
X192138196Y-118852334D01*
X192101533Y-118913131D01*
X192037821Y-118944457D01*
X191966841Y-118935123D01*
X191965273Y-118934107D01*
X191956676Y-118931536D01*
X191956674Y-118931535D01*
X191940710Y-118926761D01*
X191923264Y-118920099D01*
X191918827Y-118918016D01*
X191900052Y-118909201D01*
X191870870Y-118904657D01*
X191854151Y-118900874D01*
X191834464Y-118894986D01*
X191834461Y-118894985D01*
X191825859Y-118892413D01*
X191816884Y-118892358D01*
X191816883Y-118892358D01*
X191810190Y-118892317D01*
X191791444Y-118892203D01*
X191790672Y-118892170D01*
X191789577Y-118892000D01*
X191758702Y-118892000D01*
X191757932Y-118891998D01*
X191684284Y-118891548D01*
X191684283Y-118891548D01*
X191680348Y-118891524D01*
X191679004Y-118891908D01*
X191677659Y-118892000D01*
X190158702Y-118892000D01*
X190157932Y-118891998D01*
X190157078Y-118891993D01*
X190080348Y-118891524D01*
X190071719Y-118893990D01*
X190071714Y-118893991D01*
X190051952Y-118899639D01*
X190035191Y-118903217D01*
X190014848Y-118906130D01*
X190014838Y-118906133D01*
X190005955Y-118907405D01*
X189982605Y-118918021D01*
X189965093Y-118924464D01*
X189957057Y-118926761D01*
X189940435Y-118931512D01*
X189915452Y-118947274D01*
X189900386Y-118955404D01*
X189873490Y-118967633D01*
X189854061Y-118984374D01*
X189839053Y-118995479D01*
X189817369Y-119009160D01*
X189811427Y-119015888D01*
X189797819Y-119031296D01*
X189785626Y-119043341D01*
X189773495Y-119053794D01*
X189763253Y-119062619D01*
X189758374Y-119070147D01*
X189758371Y-119070150D01*
X189749304Y-119084139D01*
X189738014Y-119099013D01*
X189721044Y-119118228D01*
X189708490Y-119144966D01*
X189700176Y-119159935D01*
X189684107Y-119184727D01*
X189681535Y-119193327D01*
X189676761Y-119209290D01*
X189670099Y-119226736D01*
X189659201Y-119249948D01*
X189656089Y-119269938D01*
X189654658Y-119279128D01*
X189650874Y-119295849D01*
X189644986Y-119315536D01*
X189644985Y-119315539D01*
X189642413Y-119324141D01*
X189642358Y-119333116D01*
X189642358Y-119333117D01*
X189642203Y-119358546D01*
X189642170Y-119359328D01*
X189642000Y-119360423D01*
X189642000Y-119391298D01*
X189641998Y-119392068D01*
X189641524Y-119469652D01*
X189641908Y-119470996D01*
X189642000Y-119472341D01*
X189642000Y-127866000D01*
X189621998Y-127934121D01*
X189568342Y-127980614D01*
X189516000Y-127992000D01*
X188834500Y-127992000D01*
X188766379Y-127971998D01*
X188719886Y-127918342D01*
X188708500Y-127866000D01*
X188708500Y-122751866D01*
X188701745Y-122689684D01*
X188650615Y-122553295D01*
X188563261Y-122436739D01*
X188446705Y-122349385D01*
X188310316Y-122298255D01*
X188248134Y-122291500D01*
X186651866Y-122291500D01*
X186589684Y-122298255D01*
X186453295Y-122349385D01*
X186336739Y-122436739D01*
X186331358Y-122443919D01*
X186300514Y-122485074D01*
X186243655Y-122527589D01*
X186172836Y-122532615D01*
X186110543Y-122498555D01*
X186098862Y-122485075D01*
X186068283Y-122444274D01*
X186055724Y-122431715D01*
X185953649Y-122355214D01*
X185938054Y-122346676D01*
X185817606Y-122301522D01*
X185802351Y-122297895D01*
X185751486Y-122292369D01*
X185744672Y-122292000D01*
X185222115Y-122292000D01*
X185206876Y-122296475D01*
X185205671Y-122297865D01*
X185204000Y-122305548D01*
X185204000Y-125678000D01*
X185183998Y-125746121D01*
X185130342Y-125792614D01*
X185078000Y-125804000D01*
X184822000Y-125804000D01*
X184753879Y-125783998D01*
X184707386Y-125730342D01*
X184696000Y-125678000D01*
X184696000Y-122310116D01*
X184691525Y-122294877D01*
X184690135Y-122293672D01*
X184682452Y-122292001D01*
X184155331Y-122292001D01*
X184148510Y-122292371D01*
X184097648Y-122297895D01*
X184082396Y-122301521D01*
X183961946Y-122346676D01*
X183946351Y-122355214D01*
X183844276Y-122431715D01*
X183831715Y-122444276D01*
X183751139Y-122551789D01*
X183694280Y-122594304D01*
X183623462Y-122599330D01*
X183561168Y-122565270D01*
X183549487Y-122551790D01*
X183531349Y-122527589D01*
X183463261Y-122436739D01*
X183346705Y-122349385D01*
X183330950Y-122343479D01*
X183240270Y-122309484D01*
X183183506Y-122266842D01*
X183158806Y-122200281D01*
X183158500Y-122191502D01*
X183158500Y-98634500D01*
X183178502Y-98566379D01*
X183232158Y-98519886D01*
X183284500Y-98508500D01*
X184982930Y-98508500D01*
X185001880Y-98509933D01*
X185016115Y-98512099D01*
X185016119Y-98512099D01*
X185023349Y-98513199D01*
X185030641Y-98512606D01*
X185030644Y-98512606D01*
X185076018Y-98508915D01*
X185086233Y-98508500D01*
X185094293Y-98508500D01*
X185107583Y-98506951D01*
X185122507Y-98505211D01*
X185126882Y-98504778D01*
X185192339Y-98499454D01*
X185192342Y-98499453D01*
X185199637Y-98498860D01*
X185206601Y-98496604D01*
X185212560Y-98495413D01*
X185218415Y-98494029D01*
X185225681Y-98493182D01*
X185294327Y-98468265D01*
X185298455Y-98466848D01*
X185360936Y-98446607D01*
X185360938Y-98446606D01*
X185367899Y-98444351D01*
X185374154Y-98440555D01*
X185379628Y-98438049D01*
X185385058Y-98435330D01*
X185391937Y-98432833D01*
X185452976Y-98392814D01*
X185456680Y-98390477D01*
X185519107Y-98352595D01*
X185527484Y-98345197D01*
X185527508Y-98345224D01*
X185530500Y-98342571D01*
X185533733Y-98339868D01*
X185539852Y-98335856D01*
X185593128Y-98279617D01*
X185595506Y-98277175D01*
X186677275Y-97195405D01*
X186739587Y-97161380D01*
X186766370Y-97158500D01*
X187240506Y-97158500D01*
X187308627Y-97178502D01*
X187355120Y-97232158D01*
X187366506Y-97284500D01*
X187366506Y-97844647D01*
X187346504Y-97912768D01*
X187303505Y-97953767D01*
X187299300Y-97956195D01*
X187293264Y-97958882D01*
X187287922Y-97962764D01*
X187287919Y-97962765D01*
X187216014Y-98015008D01*
X187138763Y-98071134D01*
X187010976Y-98213056D01*
X186915489Y-98378444D01*
X186856474Y-98560072D01*
X186836512Y-98750000D01*
X186856474Y-98939928D01*
X186915489Y-99121556D01*
X187010976Y-99286944D01*
X187138763Y-99428866D01*
X187293264Y-99541118D01*
X187299292Y-99543802D01*
X187299294Y-99543803D01*
X187461697Y-99616109D01*
X187467728Y-99618794D01*
X187561128Y-99638647D01*
X187648072Y-99657128D01*
X187648077Y-99657128D01*
X187654529Y-99658500D01*
X187845503Y-99658500D01*
X187851955Y-99657128D01*
X187851960Y-99657128D01*
X187938904Y-99638647D01*
X188032304Y-99618794D01*
X188038335Y-99616109D01*
X188200738Y-99543803D01*
X188200740Y-99543802D01*
X188206768Y-99541118D01*
X188361269Y-99428866D01*
X188489056Y-99286944D01*
X188584543Y-99121556D01*
X188643558Y-98939928D01*
X188663520Y-98750000D01*
X188643558Y-98560072D01*
X188641517Y-98553790D01*
X188640145Y-98547336D01*
X188641636Y-98547019D01*
X188638000Y-98521491D01*
X188638226Y-98520067D01*
X188637093Y-98508075D01*
X188634065Y-98476049D01*
X188633506Y-98464191D01*
X188633506Y-96447095D01*
X188892001Y-96447095D01*
X188892338Y-96453614D01*
X188902257Y-96549206D01*
X188905149Y-96562600D01*
X188956588Y-96716784D01*
X188962761Y-96729962D01*
X189048063Y-96867807D01*
X189057099Y-96879208D01*
X189171829Y-96993739D01*
X189183240Y-97002751D01*
X189321243Y-97087816D01*
X189334424Y-97093963D01*
X189488710Y-97145138D01*
X189502086Y-97148005D01*
X189596438Y-97157672D01*
X189602854Y-97158000D01*
X189702885Y-97158000D01*
X189718124Y-97153525D01*
X189719329Y-97152135D01*
X189721000Y-97144452D01*
X189721000Y-97139884D01*
X190229000Y-97139884D01*
X190233475Y-97155123D01*
X190234865Y-97156328D01*
X190242548Y-97157999D01*
X190347095Y-97157999D01*
X190353614Y-97157662D01*
X190449206Y-97147743D01*
X190462600Y-97144851D01*
X190616784Y-97093412D01*
X190629962Y-97087239D01*
X190767807Y-97001937D01*
X190779208Y-96992901D01*
X190893739Y-96878171D01*
X190902751Y-96866760D01*
X190987816Y-96728757D01*
X190993963Y-96715576D01*
X191045138Y-96561290D01*
X191048005Y-96547914D01*
X191057672Y-96453562D01*
X191058000Y-96447146D01*
X191058000Y-96022115D01*
X191053525Y-96006876D01*
X191052135Y-96005671D01*
X191044452Y-96004000D01*
X190247115Y-96004000D01*
X190231876Y-96008475D01*
X190230671Y-96009865D01*
X190229000Y-96017548D01*
X190229000Y-97139884D01*
X189721000Y-97139884D01*
X189721000Y-96022115D01*
X189716525Y-96006876D01*
X189715135Y-96005671D01*
X189707452Y-96004000D01*
X188910116Y-96004000D01*
X188894877Y-96008475D01*
X188893672Y-96009865D01*
X188892001Y-96017548D01*
X188892001Y-96447095D01*
X188633506Y-96447095D01*
X188633506Y-94801588D01*
X188653508Y-94733467D01*
X188670411Y-94712493D01*
X188764152Y-94618752D01*
X188826464Y-94584726D01*
X188897279Y-94589791D01*
X188954115Y-94632338D01*
X188978926Y-94698858D01*
X188963054Y-94763573D01*
X188965277Y-94764609D01*
X188956037Y-94784424D01*
X188904862Y-94938710D01*
X188901995Y-94952086D01*
X188892328Y-95046438D01*
X188892000Y-95052855D01*
X188892000Y-95477885D01*
X188896475Y-95493124D01*
X188897865Y-95494329D01*
X188905548Y-95496000D01*
X189702885Y-95496000D01*
X189718124Y-95491525D01*
X189719329Y-95490135D01*
X189721000Y-95482452D01*
X189721000Y-95477885D01*
X190229000Y-95477885D01*
X190233475Y-95493124D01*
X190234865Y-95494329D01*
X190242548Y-95496000D01*
X191039884Y-95496000D01*
X191055123Y-95491525D01*
X191056328Y-95490135D01*
X191057999Y-95482452D01*
X191057999Y-95052905D01*
X191057662Y-95046386D01*
X191047743Y-94950794D01*
X191044851Y-94937400D01*
X190993412Y-94783216D01*
X190987239Y-94770038D01*
X190901937Y-94632193D01*
X190892901Y-94620792D01*
X190778171Y-94506261D01*
X190766760Y-94497249D01*
X190628757Y-94412184D01*
X190615576Y-94406037D01*
X190461290Y-94354862D01*
X190447914Y-94351995D01*
X190353562Y-94342328D01*
X190347145Y-94342000D01*
X190247115Y-94342000D01*
X190231876Y-94346475D01*
X190230671Y-94347865D01*
X190229000Y-94355548D01*
X190229000Y-95477885D01*
X189721000Y-95477885D01*
X189721000Y-94360116D01*
X189716525Y-94344877D01*
X189715135Y-94343672D01*
X189707452Y-94342001D01*
X189602905Y-94342001D01*
X189596386Y-94342338D01*
X189500794Y-94352257D01*
X189487400Y-94355149D01*
X189333216Y-94406588D01*
X189313417Y-94415863D01*
X189312234Y-94413338D01*
X189256163Y-94428772D01*
X189188392Y-94407615D01*
X189142817Y-94353177D01*
X189133909Y-94282741D01*
X189169209Y-94213695D01*
X189867247Y-93515657D01*
X189875537Y-93508113D01*
X189882018Y-93504000D01*
X189928659Y-93454332D01*
X189931413Y-93451491D01*
X189951135Y-93431769D01*
X189953612Y-93428576D01*
X189961317Y-93419555D01*
X189986159Y-93393100D01*
X189991586Y-93387321D01*
X189995407Y-93380371D01*
X190001346Y-93369568D01*
X190012202Y-93353041D01*
X190018082Y-93345461D01*
X190024614Y-93337040D01*
X190027763Y-93329762D01*
X190028362Y-93328750D01*
X190080255Y-93280298D01*
X190150423Y-93267627D01*
X190176866Y-93270500D01*
X190973134Y-93270500D01*
X190977746Y-93269999D01*
X191027466Y-93264598D01*
X191027468Y-93264598D01*
X191035316Y-93263745D01*
X191042709Y-93260973D01*
X191042711Y-93260973D01*
X191080771Y-93246705D01*
X191151578Y-93241522D01*
X191169229Y-93246705D01*
X191207289Y-93260973D01*
X191207291Y-93260973D01*
X191214684Y-93263745D01*
X191222532Y-93264598D01*
X191222534Y-93264598D01*
X191272254Y-93269999D01*
X191276866Y-93270500D01*
X192073134Y-93270500D01*
X192081134Y-93269631D01*
X192135316Y-93263745D01*
X192135580Y-93266174D01*
X192164420Y-93266174D01*
X192164684Y-93263745D01*
X192218867Y-93269631D01*
X192226866Y-93270500D01*
X193023134Y-93270500D01*
X193085316Y-93263745D01*
X193221705Y-93212615D01*
X193338261Y-93125261D01*
X193425615Y-93008705D01*
X193476745Y-92872316D01*
X193483500Y-92810134D01*
X193483500Y-91513866D01*
X193476745Y-91451684D01*
X193425615Y-91315295D01*
X193338261Y-91198739D01*
X193261407Y-91141140D01*
X193218892Y-91084281D01*
X193215976Y-91075469D01*
X193213231Y-91066023D01*
X193213230Y-91066021D01*
X193211018Y-91058407D01*
X193206984Y-91051585D01*
X193206981Y-91051579D01*
X193200706Y-91040968D01*
X193192010Y-91023218D01*
X193187472Y-91011756D01*
X193187469Y-91011751D01*
X193184552Y-91004383D01*
X193158573Y-90968625D01*
X193152057Y-90958707D01*
X193137067Y-90933361D01*
X193129542Y-90920637D01*
X193115218Y-90906313D01*
X193102376Y-90891278D01*
X193090472Y-90874893D01*
X193056406Y-90846711D01*
X193047627Y-90838722D01*
X191566648Y-89357743D01*
X191559108Y-89349457D01*
X191554996Y-89342978D01*
X191505344Y-89296352D01*
X191502503Y-89293598D01*
X191482766Y-89273861D01*
X191479569Y-89271381D01*
X191470547Y-89263676D01*
X191444096Y-89238837D01*
X191438317Y-89233410D01*
X191431371Y-89229591D01*
X191431368Y-89229589D01*
X191420562Y-89223648D01*
X191404043Y-89212797D01*
X191398044Y-89208144D01*
X191388037Y-89200382D01*
X191380768Y-89197237D01*
X191380764Y-89197234D01*
X191347459Y-89182822D01*
X191336809Y-89177605D01*
X191298056Y-89156301D01*
X191278433Y-89151263D01*
X191259730Y-89144859D01*
X191248416Y-89139963D01*
X191248415Y-89139963D01*
X191241141Y-89136815D01*
X191202697Y-89130726D01*
X191138544Y-89100314D01*
X191128769Y-89090584D01*
X191115675Y-89076040D01*
X191115669Y-89076035D01*
X191111253Y-89071130D01*
X191105736Y-89067121D01*
X190962094Y-88962759D01*
X190962093Y-88962758D01*
X190956752Y-88958878D01*
X190950724Y-88956194D01*
X190950722Y-88956193D01*
X190788319Y-88883887D01*
X190788318Y-88883887D01*
X190782288Y-88881202D01*
X190688887Y-88861349D01*
X190601944Y-88842868D01*
X190601939Y-88842868D01*
X190595487Y-88841496D01*
X190404513Y-88841496D01*
X190398061Y-88842868D01*
X190398056Y-88842868D01*
X190311113Y-88861349D01*
X190217712Y-88881202D01*
X190211682Y-88883887D01*
X190211681Y-88883887D01*
X190049278Y-88956193D01*
X190049276Y-88956194D01*
X190043248Y-88958878D01*
X190037907Y-88962758D01*
X190037906Y-88962759D01*
X190028448Y-88969631D01*
X189888747Y-89071130D01*
X189884326Y-89076040D01*
X189884325Y-89076041D01*
X189769209Y-89203891D01*
X189760960Y-89213052D01*
X189746073Y-89238837D01*
X189734118Y-89259544D01*
X189682736Y-89308537D01*
X189613022Y-89321973D01*
X189547111Y-89295587D01*
X189515880Y-89259544D01*
X189495155Y-89223648D01*
X189489040Y-89213056D01*
X189433402Y-89151263D01*
X189365675Y-89076045D01*
X189365671Y-89076041D01*
X189361253Y-89071134D01*
X189218095Y-88967123D01*
X189212094Y-88962763D01*
X189212093Y-88962762D01*
X189206752Y-88958882D01*
X189200724Y-88956198D01*
X189200722Y-88956197D01*
X189038319Y-88883891D01*
X189038318Y-88883891D01*
X189032288Y-88881206D01*
X188938887Y-88861353D01*
X188851944Y-88842872D01*
X188851939Y-88842872D01*
X188845487Y-88841500D01*
X188654513Y-88841500D01*
X188648061Y-88842872D01*
X188648056Y-88842872D01*
X188561113Y-88861353D01*
X188467712Y-88881206D01*
X188461682Y-88883891D01*
X188461681Y-88883891D01*
X188299278Y-88956197D01*
X188299276Y-88956198D01*
X188293248Y-88958882D01*
X188287907Y-88962762D01*
X188287906Y-88962763D01*
X188281905Y-88967123D01*
X188138747Y-89071134D01*
X188134329Y-89076041D01*
X188134325Y-89076045D01*
X188066599Y-89151263D01*
X188010960Y-89213056D01*
X187915473Y-89378444D01*
X187913432Y-89384726D01*
X187904332Y-89412733D01*
X187864258Y-89471338D01*
X187798861Y-89498975D01*
X187728905Y-89486868D01*
X187676599Y-89438862D01*
X187658499Y-89373796D01*
X187658499Y-88506669D01*
X192567001Y-88506669D01*
X192567371Y-88513490D01*
X192572895Y-88564352D01*
X192576521Y-88579604D01*
X192621676Y-88700054D01*
X192630214Y-88715649D01*
X192706715Y-88817724D01*
X192719276Y-88830285D01*
X192821351Y-88906786D01*
X192836946Y-88915324D01*
X192957394Y-88960478D01*
X192972649Y-88964105D01*
X193023514Y-88969631D01*
X193030328Y-88970000D01*
X193302885Y-88970000D01*
X193318124Y-88965525D01*
X193319329Y-88964135D01*
X193321000Y-88956452D01*
X193321000Y-88951884D01*
X193829000Y-88951884D01*
X193833475Y-88967123D01*
X193834865Y-88968328D01*
X193842548Y-88969999D01*
X194119669Y-88969999D01*
X194126490Y-88969629D01*
X194177352Y-88964105D01*
X194192604Y-88960479D01*
X194313054Y-88915324D01*
X194328649Y-88906786D01*
X194430724Y-88830285D01*
X194443285Y-88817724D01*
X194519786Y-88715649D01*
X194528324Y-88700054D01*
X194573478Y-88579606D01*
X194577105Y-88564351D01*
X194582631Y-88513486D01*
X194583000Y-88506672D01*
X194583000Y-88134115D01*
X194578525Y-88118876D01*
X194577135Y-88117671D01*
X194569452Y-88116000D01*
X193847115Y-88116000D01*
X193831876Y-88120475D01*
X193830671Y-88121865D01*
X193829000Y-88129548D01*
X193829000Y-88951884D01*
X193321000Y-88951884D01*
X193321000Y-88134115D01*
X193316525Y-88118876D01*
X193315135Y-88117671D01*
X193307452Y-88116000D01*
X192585116Y-88116000D01*
X192569877Y-88120475D01*
X192568672Y-88121865D01*
X192567001Y-88129548D01*
X192567001Y-88506669D01*
X187658499Y-88506669D01*
X187658499Y-87589885D01*
X192567000Y-87589885D01*
X192571475Y-87605124D01*
X192572865Y-87606329D01*
X192580548Y-87608000D01*
X193302885Y-87608000D01*
X193318124Y-87603525D01*
X193319329Y-87602135D01*
X193321000Y-87594452D01*
X193321000Y-87589885D01*
X193829000Y-87589885D01*
X193833475Y-87605124D01*
X193834865Y-87606329D01*
X193842548Y-87608000D01*
X194564884Y-87608000D01*
X194580123Y-87603525D01*
X194581328Y-87602135D01*
X194582999Y-87594452D01*
X194582999Y-87217331D01*
X194582629Y-87210510D01*
X194577105Y-87159648D01*
X194573479Y-87144396D01*
X194528324Y-87023946D01*
X194519786Y-87008351D01*
X194443285Y-86906276D01*
X194430724Y-86893715D01*
X194328649Y-86817214D01*
X194313054Y-86808676D01*
X194192606Y-86763522D01*
X194177351Y-86759895D01*
X194126486Y-86754369D01*
X194119672Y-86754000D01*
X193847115Y-86754000D01*
X193831876Y-86758475D01*
X193830671Y-86759865D01*
X193829000Y-86767548D01*
X193829000Y-87589885D01*
X193321000Y-87589885D01*
X193321000Y-86772116D01*
X193316525Y-86756877D01*
X193315135Y-86755672D01*
X193307452Y-86754001D01*
X193030331Y-86754001D01*
X193023510Y-86754371D01*
X192972648Y-86759895D01*
X192957396Y-86763521D01*
X192836946Y-86808676D01*
X192821351Y-86817214D01*
X192719276Y-86893715D01*
X192706715Y-86906276D01*
X192630214Y-87008351D01*
X192621676Y-87023946D01*
X192576522Y-87144394D01*
X192572895Y-87159649D01*
X192567369Y-87210514D01*
X192567000Y-87217328D01*
X192567000Y-87589885D01*
X187658499Y-87589885D01*
X187658499Y-83716372D01*
X187678501Y-83648251D01*
X187695404Y-83627277D01*
X188864276Y-82458405D01*
X188926588Y-82424379D01*
X188953371Y-82421500D01*
X192663411Y-82421500D01*
X192731532Y-82441502D01*
X192738975Y-82446674D01*
X192828295Y-82513615D01*
X192964684Y-82564745D01*
X193026866Y-82571500D01*
X194123134Y-82571500D01*
X194185316Y-82564745D01*
X194321705Y-82513615D01*
X194438261Y-82426261D01*
X194525615Y-82309705D01*
X194576745Y-82173316D01*
X194583500Y-82111134D01*
X194583500Y-81214866D01*
X194576745Y-81152684D01*
X194525615Y-81016295D01*
X194438261Y-80899739D01*
X194321705Y-80812385D01*
X194185316Y-80761255D01*
X194123134Y-80754500D01*
X193026866Y-80754500D01*
X192964684Y-80761255D01*
X192828295Y-80812385D01*
X192738976Y-80879326D01*
X192672470Y-80904174D01*
X192663411Y-80904500D01*
X188654070Y-80904500D01*
X188635120Y-80903067D01*
X188620885Y-80900901D01*
X188620881Y-80900901D01*
X188613651Y-80899801D01*
X188606359Y-80900394D01*
X188606356Y-80900394D01*
X188560982Y-80904085D01*
X188550767Y-80904500D01*
X188542707Y-80904500D01*
X188539073Y-80904924D01*
X188539067Y-80904924D01*
X188526042Y-80906443D01*
X188514480Y-80907791D01*
X188510132Y-80908221D01*
X188437364Y-80914140D01*
X188430403Y-80916395D01*
X188424463Y-80917582D01*
X188418588Y-80918971D01*
X188411319Y-80919818D01*
X188342670Y-80944736D01*
X188338542Y-80946153D01*
X188276064Y-80966393D01*
X188276062Y-80966394D01*
X188269101Y-80968649D01*
X188262846Y-80972445D01*
X188257372Y-80974951D01*
X188251942Y-80977670D01*
X188245063Y-80980167D01*
X188238943Y-80984180D01*
X188238942Y-80984180D01*
X188184024Y-81020186D01*
X188180320Y-81022523D01*
X188117893Y-81060405D01*
X188109516Y-81067803D01*
X188109492Y-81067776D01*
X188106500Y-81070429D01*
X188103267Y-81073132D01*
X188097148Y-81077144D01*
X188092116Y-81082456D01*
X188043872Y-81133383D01*
X188041494Y-81135825D01*
X186411088Y-82766231D01*
X186396676Y-82778617D01*
X186385081Y-82787150D01*
X186385076Y-82787155D01*
X186379181Y-82791493D01*
X186374442Y-82797071D01*
X186374439Y-82797074D01*
X186344964Y-82831769D01*
X186338034Y-82839285D01*
X186332339Y-82844980D01*
X186330059Y-82847862D01*
X186314718Y-82867252D01*
X186311927Y-82870656D01*
X186269408Y-82920704D01*
X186264666Y-82926286D01*
X186261338Y-82932802D01*
X186257971Y-82937851D01*
X186254804Y-82942980D01*
X186250265Y-82948717D01*
X186219344Y-83014876D01*
X186217441Y-83018770D01*
X186184230Y-83083809D01*
X186182491Y-83090917D01*
X186180392Y-83096560D01*
X186178475Y-83102323D01*
X186175377Y-83108951D01*
X186173887Y-83116113D01*
X186173887Y-83116114D01*
X186160513Y-83180413D01*
X186159543Y-83184697D01*
X186142191Y-83255611D01*
X186141499Y-83266765D01*
X186141463Y-83266763D01*
X186141224Y-83270756D01*
X186140850Y-83274948D01*
X186139359Y-83282116D01*
X186139557Y-83289433D01*
X186141453Y-83359522D01*
X186141499Y-83362929D01*
X186141499Y-90619929D01*
X186140066Y-90638879D01*
X186136800Y-90660348D01*
X186137393Y-90667640D01*
X186137393Y-90667643D01*
X186141084Y-90713017D01*
X186141499Y-90723232D01*
X186141499Y-90731292D01*
X186141924Y-90734936D01*
X186144788Y-90759506D01*
X186145221Y-90763881D01*
X186151139Y-90836636D01*
X186153395Y-90843600D01*
X186154586Y-90849559D01*
X186155970Y-90855414D01*
X186156817Y-90862680D01*
X186159313Y-90869556D01*
X186164740Y-90884507D01*
X186169182Y-90955364D01*
X186134611Y-91017375D01*
X186072002Y-91050851D01*
X186046302Y-91053500D01*
X185776866Y-91053500D01*
X185773469Y-91053869D01*
X185722534Y-91059402D01*
X185722532Y-91059402D01*
X185714684Y-91060255D01*
X185707291Y-91063027D01*
X185707289Y-91063027D01*
X185669229Y-91077295D01*
X185598422Y-91082478D01*
X185580771Y-91077295D01*
X185542711Y-91063027D01*
X185542709Y-91063027D01*
X185535316Y-91060255D01*
X185527468Y-91059402D01*
X185527466Y-91059402D01*
X185476531Y-91053869D01*
X185473134Y-91053500D01*
X184676866Y-91053500D01*
X184673469Y-91053869D01*
X184622534Y-91059402D01*
X184622532Y-91059402D01*
X184614684Y-91060255D01*
X184607291Y-91063027D01*
X184607289Y-91063027D01*
X184569229Y-91077295D01*
X184498422Y-91082478D01*
X184480771Y-91077295D01*
X184442711Y-91063027D01*
X184442709Y-91063027D01*
X184435316Y-91060255D01*
X184427468Y-91059402D01*
X184427466Y-91059402D01*
X184376531Y-91053869D01*
X184373134Y-91053500D01*
X183576866Y-91053500D01*
X183514684Y-91060255D01*
X183378295Y-91111385D01*
X183351953Y-91131127D01*
X183350148Y-91132480D01*
X183283642Y-91157328D01*
X183214259Y-91142275D01*
X183199018Y-91132480D01*
X183178649Y-91117214D01*
X183163054Y-91108676D01*
X183042606Y-91063522D01*
X183027351Y-91059895D01*
X182976486Y-91054369D01*
X182969672Y-91054000D01*
X182697115Y-91054000D01*
X182681876Y-91058475D01*
X182680671Y-91059865D01*
X182679000Y-91067548D01*
X182679000Y-93251884D01*
X182683475Y-93267123D01*
X182684865Y-93268328D01*
X182692548Y-93269999D01*
X182969669Y-93269999D01*
X182976490Y-93269629D01*
X183027352Y-93264105D01*
X183042604Y-93260479D01*
X183163054Y-93215324D01*
X183178649Y-93206786D01*
X183199018Y-93191520D01*
X183265525Y-93166672D01*
X183334907Y-93181725D01*
X183350148Y-93191520D01*
X183378295Y-93212615D01*
X183386703Y-93215767D01*
X183514684Y-93263745D01*
X183513508Y-93266881D01*
X183561884Y-93294557D01*
X183594665Y-93357532D01*
X183588195Y-93428233D01*
X183560132Y-93470961D01*
X182951498Y-94079595D01*
X182889186Y-94113621D01*
X182862403Y-94116500D01*
X174809776Y-94116500D01*
X174790065Y-94114949D01*
X174781681Y-94113621D01*
X174770057Y-94111780D01*
X174762165Y-94112526D01*
X174726039Y-94115941D01*
X174714181Y-94116500D01*
X174534500Y-94116500D01*
X174466379Y-94096498D01*
X174419886Y-94042842D01*
X174408500Y-93990500D01*
X174408500Y-93759500D01*
X174428502Y-93691379D01*
X174482158Y-93644886D01*
X174534500Y-93633500D01*
X175421233Y-93633500D01*
X175432416Y-93634027D01*
X175439909Y-93635702D01*
X175447835Y-93635453D01*
X175447836Y-93635453D01*
X175507986Y-93633562D01*
X175511945Y-93633500D01*
X175539856Y-93633500D01*
X175543791Y-93633003D01*
X175543856Y-93632995D01*
X175555693Y-93632062D01*
X175587951Y-93631048D01*
X175591970Y-93630922D01*
X175599889Y-93630673D01*
X175619343Y-93625021D01*
X175638700Y-93621013D01*
X175650930Y-93619468D01*
X175650931Y-93619468D01*
X175658797Y-93618474D01*
X175666168Y-93615555D01*
X175666170Y-93615555D01*
X175699912Y-93602196D01*
X175711142Y-93598351D01*
X175745983Y-93588229D01*
X175745984Y-93588229D01*
X175753593Y-93586018D01*
X175760412Y-93581985D01*
X175760417Y-93581983D01*
X175771028Y-93575707D01*
X175788776Y-93567012D01*
X175807617Y-93559552D01*
X175843387Y-93533564D01*
X175853307Y-93527048D01*
X175884535Y-93508580D01*
X175884538Y-93508578D01*
X175891362Y-93504542D01*
X175905683Y-93490221D01*
X175920717Y-93477380D01*
X175930694Y-93470131D01*
X175937107Y-93465472D01*
X175965298Y-93431395D01*
X175973288Y-93422616D01*
X176589236Y-92806669D01*
X181417001Y-92806669D01*
X181417371Y-92813490D01*
X181422895Y-92864352D01*
X181426521Y-92879604D01*
X181471676Y-93000054D01*
X181480214Y-93015649D01*
X181556715Y-93117724D01*
X181569276Y-93130285D01*
X181671351Y-93206786D01*
X181686946Y-93215324D01*
X181807394Y-93260478D01*
X181822649Y-93264105D01*
X181873514Y-93269631D01*
X181880328Y-93270000D01*
X182152885Y-93270000D01*
X182168124Y-93265525D01*
X182169329Y-93264135D01*
X182171000Y-93256452D01*
X182171000Y-92434115D01*
X182166525Y-92418876D01*
X182165135Y-92417671D01*
X182157452Y-92416000D01*
X181435116Y-92416000D01*
X181419877Y-92420475D01*
X181418672Y-92421865D01*
X181417001Y-92429548D01*
X181417001Y-92806669D01*
X176589236Y-92806669D01*
X177142253Y-92253652D01*
X177150539Y-92246112D01*
X177157018Y-92242000D01*
X177203644Y-92192348D01*
X177206398Y-92189507D01*
X177226135Y-92169770D01*
X177228615Y-92166573D01*
X177236320Y-92157551D01*
X177261159Y-92131100D01*
X177266586Y-92125321D01*
X177270405Y-92118375D01*
X177270407Y-92118372D01*
X177276348Y-92107566D01*
X177287199Y-92091047D01*
X177294758Y-92081301D01*
X177299614Y-92075041D01*
X177302759Y-92067772D01*
X177302762Y-92067768D01*
X177317174Y-92034463D01*
X177322391Y-92023813D01*
X177343695Y-91985060D01*
X177348733Y-91965437D01*
X177355137Y-91946734D01*
X177360033Y-91935420D01*
X177360033Y-91935419D01*
X177363181Y-91928145D01*
X177364420Y-91920322D01*
X177364423Y-91920312D01*
X177369242Y-91889885D01*
X181417000Y-91889885D01*
X181421475Y-91905124D01*
X181422865Y-91906329D01*
X181430548Y-91908000D01*
X182152885Y-91908000D01*
X182168124Y-91903525D01*
X182169329Y-91902135D01*
X182171000Y-91894452D01*
X182171000Y-91072116D01*
X182166525Y-91056877D01*
X182165135Y-91055672D01*
X182157452Y-91054001D01*
X181880331Y-91054001D01*
X181873510Y-91054371D01*
X181822648Y-91059895D01*
X181807396Y-91063521D01*
X181686946Y-91108676D01*
X181671351Y-91117214D01*
X181569276Y-91193715D01*
X181556715Y-91206276D01*
X181480214Y-91308351D01*
X181471676Y-91323946D01*
X181426522Y-91444394D01*
X181422895Y-91459649D01*
X181417369Y-91510514D01*
X181417000Y-91517328D01*
X181417000Y-91889885D01*
X177369242Y-91889885D01*
X177370099Y-91884476D01*
X177372505Y-91872856D01*
X177381528Y-91837711D01*
X177381528Y-91837710D01*
X177383500Y-91830030D01*
X177383500Y-91809776D01*
X177385051Y-91790065D01*
X177386980Y-91777886D01*
X177388220Y-91770057D01*
X177384059Y-91726038D01*
X177383500Y-91714181D01*
X177383500Y-84401450D01*
X177403502Y-84333329D01*
X177457158Y-84286836D01*
X177496496Y-84276123D01*
X177504135Y-84275331D01*
X177524308Y-84273238D01*
X177524312Y-84273237D01*
X177531166Y-84272526D01*
X177537702Y-84270345D01*
X177537704Y-84270345D01*
X177669806Y-84226272D01*
X177698946Y-84216550D01*
X177849348Y-84123478D01*
X177974305Y-83998303D01*
X178067115Y-83847738D01*
X178122797Y-83679861D01*
X178124404Y-83664182D01*
X178128185Y-83627277D01*
X178133500Y-83575400D01*
X178133500Y-82849600D01*
X178133021Y-82844980D01*
X178123238Y-82750692D01*
X178123237Y-82750688D01*
X178122526Y-82743834D01*
X178105231Y-82691993D01*
X178068868Y-82583002D01*
X178066550Y-82576054D01*
X177973478Y-82425652D01*
X177848303Y-82300695D01*
X177842072Y-82296854D01*
X177703968Y-82211725D01*
X177703966Y-82211724D01*
X177697738Y-82207885D01*
X177537254Y-82154655D01*
X177536389Y-82154368D01*
X177536387Y-82154368D01*
X177529861Y-82152203D01*
X177523025Y-82151503D01*
X177523022Y-82151502D01*
X177479969Y-82147091D01*
X177425400Y-82141500D01*
X176074600Y-82141500D01*
X176071354Y-82141837D01*
X176071350Y-82141837D01*
X175975692Y-82151762D01*
X175975688Y-82151763D01*
X175968834Y-82152474D01*
X175962298Y-82154655D01*
X175962296Y-82154655D01*
X175830194Y-82198728D01*
X175801054Y-82208450D01*
X175650652Y-82301522D01*
X175645479Y-82306704D01*
X175589172Y-82363109D01*
X175526889Y-82397188D01*
X175456069Y-82392185D01*
X175410981Y-82363264D01*
X175353483Y-82305866D01*
X175348303Y-82300695D01*
X175342072Y-82296854D01*
X175203968Y-82211725D01*
X175203966Y-82211724D01*
X175197738Y-82207885D01*
X175037254Y-82154655D01*
X175036389Y-82154368D01*
X175036387Y-82154368D01*
X175029861Y-82152203D01*
X175023025Y-82151503D01*
X175023022Y-82151502D01*
X174979969Y-82147091D01*
X174925400Y-82141500D01*
X173574600Y-82141500D01*
X173571354Y-82141837D01*
X173571350Y-82141837D01*
X173475692Y-82151762D01*
X173475688Y-82151763D01*
X173468834Y-82152474D01*
X173462298Y-82154655D01*
X173462296Y-82154655D01*
X173330194Y-82198728D01*
X173301054Y-82208450D01*
X173150652Y-82301522D01*
X173025695Y-82426697D01*
X173021855Y-82432927D01*
X173021854Y-82432928D01*
X172940601Y-82564745D01*
X172932885Y-82577262D01*
X172911368Y-82642133D01*
X172884384Y-82723490D01*
X172877203Y-82745139D01*
X172876503Y-82751975D01*
X172876502Y-82751978D01*
X172875865Y-82758195D01*
X172866500Y-82849600D01*
X172866500Y-83575400D01*
X172866837Y-83578646D01*
X172866837Y-83578650D01*
X172875712Y-83664182D01*
X172877474Y-83681166D01*
X172879655Y-83687702D01*
X172879655Y-83687704D01*
X172923728Y-83819806D01*
X172933450Y-83848946D01*
X173026522Y-83999348D01*
X173151697Y-84124305D01*
X173157927Y-84128145D01*
X173157928Y-84128146D01*
X173295090Y-84212694D01*
X173302262Y-84217115D01*
X173382005Y-84243564D01*
X173463611Y-84270632D01*
X173463613Y-84270632D01*
X173470139Y-84272797D01*
X173476977Y-84273498D01*
X173476979Y-84273498D01*
X173503342Y-84276199D01*
X173569070Y-84303040D01*
X173609852Y-84361155D01*
X173616500Y-84401543D01*
X173616500Y-86415500D01*
X173596498Y-86483621D01*
X173542842Y-86530114D01*
X173490500Y-86541500D01*
X172851866Y-86541500D01*
X172789684Y-86548255D01*
X172653295Y-86599385D01*
X172597784Y-86640988D01*
X172575148Y-86657953D01*
X172508642Y-86682801D01*
X172439259Y-86667748D01*
X172424018Y-86657953D01*
X172353648Y-86605214D01*
X172338054Y-86596676D01*
X172217606Y-86551522D01*
X172202351Y-86547895D01*
X172151486Y-86542369D01*
X172144672Y-86542000D01*
X171872115Y-86542000D01*
X171856876Y-86546475D01*
X171855671Y-86547865D01*
X171854000Y-86555548D01*
X171854000Y-88128000D01*
X171833998Y-88196121D01*
X171780342Y-88242614D01*
X171728000Y-88254000D01*
X170610116Y-88254000D01*
X170594877Y-88258475D01*
X170593672Y-88259865D01*
X170592001Y-88267548D01*
X170592001Y-88994669D01*
X170592371Y-89001490D01*
X170597895Y-89052352D01*
X170601521Y-89067604D01*
X170646676Y-89188054D01*
X170655214Y-89203649D01*
X170731715Y-89305724D01*
X170744276Y-89318285D01*
X170846351Y-89394786D01*
X170861946Y-89403324D01*
X170982394Y-89448478D01*
X170997649Y-89452105D01*
X171048514Y-89457631D01*
X171055328Y-89458000D01*
X171432921Y-89458000D01*
X171501042Y-89478002D01*
X171524711Y-89500028D01*
X171525365Y-89499374D01*
X171544276Y-89518285D01*
X171647532Y-89595671D01*
X171690047Y-89652530D01*
X171695073Y-89723349D01*
X171672793Y-89772062D01*
X171649385Y-89803295D01*
X171598255Y-89939684D01*
X171591500Y-90001866D01*
X171591500Y-90240500D01*
X171571498Y-90308621D01*
X171517842Y-90355114D01*
X171465500Y-90366500D01*
X169678767Y-90366500D01*
X169667584Y-90365973D01*
X169660091Y-90364298D01*
X169652165Y-90364547D01*
X169652164Y-90364547D01*
X169592001Y-90366438D01*
X169588043Y-90366500D01*
X169560144Y-90366500D01*
X169556154Y-90367004D01*
X169544320Y-90367936D01*
X169500111Y-90369326D01*
X169492497Y-90371538D01*
X169492492Y-90371539D01*
X169480659Y-90374977D01*
X169461296Y-90378988D01*
X169441203Y-90381526D01*
X169433836Y-90384443D01*
X169433831Y-90384444D01*
X169400092Y-90397802D01*
X169388865Y-90401646D01*
X169346407Y-90413982D01*
X169339581Y-90418019D01*
X169328972Y-90424293D01*
X169311224Y-90432988D01*
X169292383Y-90440448D01*
X169285967Y-90445110D01*
X169285966Y-90445110D01*
X169256613Y-90466436D01*
X169246693Y-90472952D01*
X169215465Y-90491420D01*
X169215462Y-90491422D01*
X169208638Y-90495458D01*
X169194317Y-90509779D01*
X169179284Y-90522619D01*
X169162893Y-90534528D01*
X169157842Y-90540633D01*
X169157837Y-90540638D01*
X169134701Y-90568604D01*
X169126713Y-90577382D01*
X168407747Y-91296348D01*
X168399461Y-91303888D01*
X168392982Y-91308000D01*
X168387557Y-91313777D01*
X168346357Y-91357651D01*
X168343602Y-91360493D01*
X168323865Y-91380230D01*
X168321385Y-91383427D01*
X168313682Y-91392447D01*
X168283414Y-91424679D01*
X168279595Y-91431625D01*
X168279593Y-91431628D01*
X168273652Y-91442434D01*
X168262801Y-91458953D01*
X168250386Y-91474959D01*
X168247241Y-91482228D01*
X168247238Y-91482232D01*
X168232826Y-91515537D01*
X168227609Y-91526187D01*
X168206305Y-91564940D01*
X168204334Y-91572615D01*
X168204334Y-91572616D01*
X168201267Y-91584562D01*
X168194863Y-91603266D01*
X168186819Y-91621855D01*
X168185580Y-91629678D01*
X168185577Y-91629688D01*
X168179901Y-91665524D01*
X168177495Y-91677144D01*
X168166500Y-91719970D01*
X168166500Y-91740224D01*
X168164949Y-91759934D01*
X168161780Y-91779943D01*
X168162526Y-91787835D01*
X168165941Y-91823961D01*
X168166500Y-91835819D01*
X168166500Y-112245847D01*
X168165973Y-112257030D01*
X168164298Y-112264523D01*
X168164547Y-112272449D01*
X168164547Y-112272450D01*
X168166438Y-112332600D01*
X168166500Y-112336559D01*
X168166500Y-112364470D01*
X168166997Y-112368404D01*
X168166997Y-112368405D01*
X168167005Y-112368470D01*
X168167938Y-112380307D01*
X168169327Y-112424503D01*
X168174978Y-112443953D01*
X168178987Y-112463314D01*
X168181526Y-112483411D01*
X168184445Y-112490782D01*
X168184445Y-112490784D01*
X168197804Y-112524526D01*
X168201649Y-112535756D01*
X168213982Y-112578207D01*
X168218015Y-112585026D01*
X168218017Y-112585031D01*
X168224293Y-112595642D01*
X168232988Y-112613390D01*
X168240448Y-112632231D01*
X168245110Y-112638647D01*
X168245110Y-112638648D01*
X168266436Y-112668001D01*
X168272952Y-112677921D01*
X168295458Y-112715976D01*
X168309779Y-112730297D01*
X168322619Y-112745330D01*
X168334528Y-112761721D01*
X168340634Y-112766772D01*
X168368605Y-112789912D01*
X168377384Y-112797902D01*
X170829595Y-115250113D01*
X170863621Y-115312425D01*
X170866500Y-115339208D01*
X170866500Y-115575400D01*
X170877474Y-115681166D01*
X170879655Y-115687702D01*
X170879655Y-115687704D01*
X170900439Y-115750000D01*
X170933450Y-115848946D01*
X171026522Y-115999348D01*
X171151697Y-116124305D01*
X171157927Y-116128145D01*
X171157928Y-116128146D01*
X171295090Y-116212694D01*
X171302262Y-116217115D01*
X171330170Y-116226372D01*
X171388528Y-116266803D01*
X171415764Y-116332367D01*
X171416500Y-116345964D01*
X171416500Y-118939902D01*
X171396498Y-119008023D01*
X171342842Y-119054516D01*
X171272568Y-119064620D01*
X171207988Y-119035126D01*
X171195046Y-119022149D01*
X171193238Y-119020050D01*
X171193237Y-119020049D01*
X171187381Y-119013253D01*
X171179853Y-119008374D01*
X171179850Y-119008371D01*
X171165861Y-118999304D01*
X171150987Y-118988014D01*
X171138502Y-118976988D01*
X171131772Y-118971044D01*
X171123646Y-118967229D01*
X171123645Y-118967228D01*
X171117979Y-118964568D01*
X171105034Y-118958490D01*
X171090065Y-118950176D01*
X171065273Y-118934107D01*
X171040709Y-118926761D01*
X171023264Y-118920099D01*
X171018827Y-118918016D01*
X171000052Y-118909201D01*
X170970870Y-118904657D01*
X170954151Y-118900874D01*
X170934464Y-118894986D01*
X170934461Y-118894985D01*
X170925859Y-118892413D01*
X170916884Y-118892358D01*
X170916883Y-118892358D01*
X170910190Y-118892317D01*
X170891444Y-118892203D01*
X170890672Y-118892170D01*
X170889577Y-118892000D01*
X170858702Y-118892000D01*
X170857932Y-118891998D01*
X170784284Y-118891548D01*
X170784283Y-118891548D01*
X170780348Y-118891524D01*
X170779004Y-118891908D01*
X170777659Y-118892000D01*
X169434000Y-118892000D01*
X169365879Y-118871998D01*
X169319386Y-118818342D01*
X169308000Y-118766000D01*
X169308000Y-116508702D01*
X169308002Y-116507932D01*
X169308421Y-116439322D01*
X169308476Y-116430348D01*
X169306010Y-116421719D01*
X169306009Y-116421714D01*
X169300361Y-116401952D01*
X169296783Y-116385191D01*
X169293870Y-116364848D01*
X169293867Y-116364838D01*
X169292595Y-116355955D01*
X169281979Y-116332605D01*
X169275536Y-116315093D01*
X169270954Y-116299063D01*
X169268488Y-116290435D01*
X169252726Y-116265452D01*
X169244596Y-116250386D01*
X169232367Y-116223490D01*
X169215626Y-116204061D01*
X169204521Y-116189053D01*
X169195630Y-116174961D01*
X169190840Y-116167369D01*
X169168703Y-116147818D01*
X169156659Y-116135626D01*
X169143239Y-116120051D01*
X169143237Y-116120050D01*
X169137381Y-116113253D01*
X169129853Y-116108374D01*
X169129850Y-116108371D01*
X169115861Y-116099304D01*
X169100987Y-116088014D01*
X169088502Y-116076988D01*
X169081772Y-116071044D01*
X169073646Y-116067229D01*
X169073645Y-116067228D01*
X169067979Y-116064568D01*
X169055034Y-116058490D01*
X169040065Y-116050176D01*
X169015273Y-116034107D01*
X168990709Y-116026761D01*
X168973264Y-116020099D01*
X168968827Y-116018016D01*
X168950052Y-116009201D01*
X168920870Y-116004657D01*
X168904151Y-116000874D01*
X168884464Y-115994986D01*
X168884461Y-115994985D01*
X168875859Y-115992413D01*
X168866884Y-115992358D01*
X168866883Y-115992358D01*
X168860190Y-115992317D01*
X168841444Y-115992203D01*
X168840672Y-115992170D01*
X168839577Y-115992000D01*
X168808702Y-115992000D01*
X168807932Y-115991998D01*
X168734284Y-115991548D01*
X168734283Y-115991548D01*
X168730348Y-115991524D01*
X168729004Y-115991908D01*
X168727659Y-115992000D01*
X166134000Y-115992000D01*
X166065879Y-115971998D01*
X166019386Y-115918342D01*
X166008000Y-115866000D01*
X166008000Y-87727885D01*
X170592000Y-87727885D01*
X170596475Y-87743124D01*
X170597865Y-87744329D01*
X170605548Y-87746000D01*
X171327885Y-87746000D01*
X171343124Y-87741525D01*
X171344329Y-87740135D01*
X171346000Y-87732452D01*
X171346000Y-86560116D01*
X171341525Y-86544877D01*
X171340135Y-86543672D01*
X171332452Y-86542001D01*
X171055331Y-86542001D01*
X171048510Y-86542371D01*
X170997648Y-86547895D01*
X170982396Y-86551521D01*
X170861946Y-86596676D01*
X170846351Y-86605214D01*
X170744276Y-86681715D01*
X170731715Y-86694276D01*
X170655214Y-86796351D01*
X170646676Y-86811946D01*
X170601522Y-86932394D01*
X170597895Y-86947649D01*
X170592369Y-86998514D01*
X170592000Y-87005328D01*
X170592000Y-87727885D01*
X166008000Y-87727885D01*
X166008000Y-83634000D01*
X166028002Y-83565879D01*
X166081658Y-83519386D01*
X166134000Y-83508000D01*
X168091298Y-83508000D01*
X168092069Y-83508002D01*
X168169652Y-83508476D01*
X168178281Y-83506010D01*
X168178286Y-83506009D01*
X168198048Y-83500361D01*
X168214809Y-83496783D01*
X168235152Y-83493870D01*
X168235162Y-83493867D01*
X168244045Y-83492595D01*
X168267395Y-83481979D01*
X168284907Y-83475536D01*
X168300937Y-83470954D01*
X168309565Y-83468488D01*
X168334548Y-83452726D01*
X168349614Y-83444596D01*
X168376510Y-83432367D01*
X168395939Y-83415626D01*
X168410947Y-83404521D01*
X168425039Y-83395630D01*
X168432631Y-83390840D01*
X168452182Y-83368703D01*
X168464374Y-83356659D01*
X168479949Y-83343239D01*
X168479950Y-83343237D01*
X168486747Y-83337381D01*
X168491626Y-83329853D01*
X168491629Y-83329850D01*
X168500696Y-83315861D01*
X168511986Y-83300987D01*
X168523012Y-83288502D01*
X168528956Y-83281772D01*
X168541510Y-83255034D01*
X168549824Y-83240065D01*
X168565893Y-83215273D01*
X168573239Y-83190709D01*
X168579901Y-83173264D01*
X168586983Y-83158179D01*
X168590799Y-83150052D01*
X168595343Y-83120870D01*
X168599126Y-83104151D01*
X168605014Y-83084464D01*
X168605015Y-83084461D01*
X168607587Y-83075859D01*
X168607797Y-83041444D01*
X168607830Y-83040672D01*
X168608000Y-83039577D01*
X168608000Y-83008702D01*
X168608002Y-83007932D01*
X168608452Y-82934284D01*
X168608452Y-82934283D01*
X168608476Y-82930348D01*
X168608092Y-82929004D01*
X168608000Y-82927659D01*
X168608000Y-78294669D01*
X172042001Y-78294669D01*
X172042371Y-78301490D01*
X172047895Y-78352352D01*
X172051521Y-78367604D01*
X172096676Y-78488054D01*
X172105214Y-78503649D01*
X172181715Y-78605724D01*
X172194276Y-78618285D01*
X172296351Y-78694786D01*
X172311946Y-78703324D01*
X172432394Y-78748478D01*
X172447649Y-78752105D01*
X172498514Y-78757631D01*
X172505328Y-78758000D01*
X173027885Y-78758000D01*
X173043124Y-78753525D01*
X173044329Y-78752135D01*
X173046000Y-78744452D01*
X173046000Y-77772115D01*
X173041525Y-77756876D01*
X173040135Y-77755671D01*
X173032452Y-77754000D01*
X172060116Y-77754000D01*
X172044877Y-77758475D01*
X172043672Y-77759865D01*
X172042001Y-77767548D01*
X172042001Y-78294669D01*
X168608000Y-78294669D01*
X168608000Y-76634000D01*
X168628002Y-76565879D01*
X168681658Y-76519386D01*
X168734000Y-76508000D01*
X171922636Y-76508000D01*
X171990757Y-76528002D01*
G37*
%TD.AperFunction*%
%TA.AperFunction,Conductor*%
G36*
X171533621Y-91653502D02*
G01*
X171580114Y-91707158D01*
X171591500Y-91759500D01*
X171591500Y-91998134D01*
X171598255Y-92060316D01*
X171649385Y-92196705D01*
X171706123Y-92272410D01*
X171730971Y-92338916D01*
X171715918Y-92408299D01*
X171679357Y-92449912D01*
X171656613Y-92466436D01*
X171646693Y-92472952D01*
X171615465Y-92491420D01*
X171615462Y-92491422D01*
X171608638Y-92495458D01*
X171594317Y-92509779D01*
X171579284Y-92522619D01*
X171562893Y-92534528D01*
X171536516Y-92566413D01*
X171534712Y-92568593D01*
X171526722Y-92577374D01*
X171157741Y-92946354D01*
X171149463Y-92953887D01*
X171142982Y-92958000D01*
X171137555Y-92963779D01*
X171137553Y-92963781D01*
X171096373Y-93007635D01*
X171093617Y-93010479D01*
X171073865Y-93030230D01*
X171071385Y-93033427D01*
X171063682Y-93042447D01*
X171033414Y-93074679D01*
X171029595Y-93081625D01*
X171029593Y-93081628D01*
X171023652Y-93092434D01*
X171012801Y-93108953D01*
X171000386Y-93124959D01*
X170997241Y-93132228D01*
X170997238Y-93132232D01*
X170982826Y-93165537D01*
X170977609Y-93176187D01*
X170956305Y-93214940D01*
X170954334Y-93222615D01*
X170954334Y-93222616D01*
X170951267Y-93234562D01*
X170944863Y-93253266D01*
X170936819Y-93271855D01*
X170935113Y-93271117D01*
X170902325Y-93322463D01*
X170863764Y-93345460D01*
X170853295Y-93349385D01*
X170846116Y-93354765D01*
X170846113Y-93354767D01*
X170802677Y-93387321D01*
X170736739Y-93436739D01*
X170649385Y-93553295D01*
X170598255Y-93689684D01*
X170591500Y-93751866D01*
X170591500Y-95748134D01*
X170598255Y-95810316D01*
X170649385Y-95946705D01*
X170736739Y-96063261D01*
X170853295Y-96150615D01*
X170989684Y-96201745D01*
X171051866Y-96208500D01*
X171432671Y-96208500D01*
X171500792Y-96228502D01*
X171524332Y-96250407D01*
X171525008Y-96249731D01*
X171531358Y-96256081D01*
X171536739Y-96263261D01*
X171543919Y-96268642D01*
X171647232Y-96346071D01*
X171689747Y-96402930D01*
X171694773Y-96473749D01*
X171672493Y-96522462D01*
X171649385Y-96553295D01*
X171598255Y-96689684D01*
X171591500Y-96751866D01*
X171591500Y-98748134D01*
X171598255Y-98810316D01*
X171649385Y-98946705D01*
X171736739Y-99063261D01*
X171853295Y-99150615D01*
X171989684Y-99201745D01*
X172051866Y-99208500D01*
X172948134Y-99208500D01*
X173010316Y-99201745D01*
X173146705Y-99150615D01*
X173263261Y-99063261D01*
X173350615Y-98946705D01*
X173401745Y-98810316D01*
X173408500Y-98748134D01*
X173408500Y-98634500D01*
X173428502Y-98566379D01*
X173482158Y-98519886D01*
X173534500Y-98508500D01*
X181515500Y-98508500D01*
X181583621Y-98528502D01*
X181630114Y-98582158D01*
X181641500Y-98634500D01*
X181641500Y-118819916D01*
X181621498Y-118888037D01*
X181567842Y-118934530D01*
X181497568Y-118944634D01*
X181468018Y-118935886D01*
X181465273Y-118934107D01*
X181456673Y-118931535D01*
X181456671Y-118931534D01*
X181440710Y-118926761D01*
X181423264Y-118920099D01*
X181418827Y-118918016D01*
X181400052Y-118909201D01*
X181370870Y-118904657D01*
X181354151Y-118900874D01*
X181334464Y-118894986D01*
X181334461Y-118894985D01*
X181325859Y-118892413D01*
X181316884Y-118892358D01*
X181316883Y-118892358D01*
X181310190Y-118892317D01*
X181291444Y-118892203D01*
X181290672Y-118892170D01*
X181289577Y-118892000D01*
X181258702Y-118892000D01*
X181257932Y-118891998D01*
X181184284Y-118891548D01*
X181184283Y-118891548D01*
X181180348Y-118891524D01*
X181179004Y-118891908D01*
X181177659Y-118892000D01*
X179658702Y-118892000D01*
X179657932Y-118891998D01*
X179657078Y-118891993D01*
X179580348Y-118891524D01*
X179571719Y-118893990D01*
X179571714Y-118893991D01*
X179551952Y-118899639D01*
X179535191Y-118903217D01*
X179514848Y-118906130D01*
X179514838Y-118906133D01*
X179505955Y-118907405D01*
X179482605Y-118918021D01*
X179465093Y-118924464D01*
X179457057Y-118926761D01*
X179440435Y-118931512D01*
X179415452Y-118947274D01*
X179400386Y-118955404D01*
X179373490Y-118967633D01*
X179354061Y-118984374D01*
X179339053Y-118995479D01*
X179317369Y-119009160D01*
X179311427Y-119015888D01*
X179297819Y-119031296D01*
X179285626Y-119043341D01*
X179273495Y-119053794D01*
X179263253Y-119062619D01*
X179258374Y-119070147D01*
X179258371Y-119070150D01*
X179249304Y-119084139D01*
X179238014Y-119099013D01*
X179221044Y-119118228D01*
X179208490Y-119144966D01*
X179200176Y-119159935D01*
X179184107Y-119184727D01*
X179181535Y-119193327D01*
X179176761Y-119209290D01*
X179170099Y-119226736D01*
X179159201Y-119249948D01*
X179156089Y-119269938D01*
X179154658Y-119279128D01*
X179150873Y-119295854D01*
X179146609Y-119310109D01*
X179107924Y-119369640D01*
X179043195Y-119398807D01*
X179025894Y-119400000D01*
X177348094Y-119400000D01*
X177279973Y-119379998D01*
X177258999Y-119363095D01*
X177197122Y-119301218D01*
X177163096Y-119238906D01*
X177160907Y-119225293D01*
X177160781Y-119224089D01*
X177147635Y-119099013D01*
X177144232Y-119066635D01*
X177144232Y-119066633D01*
X177143542Y-119060072D01*
X177084527Y-118878444D01*
X177080806Y-118871998D01*
X176992341Y-118718774D01*
X176989040Y-118713056D01*
X176968216Y-118689928D01*
X176865675Y-118576045D01*
X176865674Y-118576044D01*
X176861253Y-118571134D01*
X176748075Y-118488905D01*
X176712094Y-118462763D01*
X176712093Y-118462762D01*
X176706752Y-118458882D01*
X176700724Y-118456198D01*
X176700722Y-118456197D01*
X176538319Y-118383891D01*
X176538318Y-118383891D01*
X176532288Y-118381206D01*
X176438887Y-118361353D01*
X176351944Y-118342872D01*
X176351939Y-118342872D01*
X176345487Y-118341500D01*
X176154513Y-118341500D01*
X176148061Y-118342872D01*
X176148056Y-118342872D01*
X176061113Y-118361353D01*
X175967712Y-118381206D01*
X175961682Y-118383891D01*
X175961681Y-118383891D01*
X175799278Y-118456197D01*
X175799276Y-118456198D01*
X175793248Y-118458882D01*
X175787907Y-118462762D01*
X175787906Y-118462763D01*
X175751925Y-118488905D01*
X175638747Y-118571134D01*
X175634326Y-118576044D01*
X175634325Y-118576045D01*
X175531785Y-118689928D01*
X175510960Y-118713056D01*
X175430848Y-118851813D01*
X175418619Y-118872995D01*
X175367236Y-118921988D01*
X175297523Y-118935424D01*
X175231612Y-118909038D01*
X175190430Y-118851205D01*
X175183500Y-118809995D01*
X175183500Y-118014594D01*
X175203502Y-117946473D01*
X175220405Y-117925499D01*
X176450499Y-116695405D01*
X176512811Y-116661379D01*
X176539594Y-116658500D01*
X176595487Y-116658500D01*
X176601939Y-116657128D01*
X176601944Y-116657128D01*
X176688887Y-116638647D01*
X176782288Y-116618794D01*
X176810330Y-116606309D01*
X176950722Y-116543803D01*
X176950724Y-116543802D01*
X176956752Y-116541118D01*
X177111253Y-116428866D01*
X177128690Y-116409500D01*
X177234621Y-116291852D01*
X177234622Y-116291851D01*
X177239040Y-116286944D01*
X177319364Y-116147819D01*
X177331223Y-116127279D01*
X177331224Y-116127278D01*
X177334527Y-116121556D01*
X177393542Y-115939928D01*
X177403105Y-115848946D01*
X177412814Y-115756565D01*
X177413504Y-115750000D01*
X177393542Y-115560072D01*
X177334527Y-115378444D01*
X177239040Y-115213056D01*
X177111253Y-115071134D01*
X176956752Y-114958882D01*
X176950724Y-114956198D01*
X176950722Y-114956197D01*
X176788319Y-114883891D01*
X176788318Y-114883891D01*
X176782288Y-114881206D01*
X176688888Y-114861353D01*
X176601944Y-114842872D01*
X176601939Y-114842872D01*
X176595487Y-114841500D01*
X176404513Y-114841500D01*
X176398061Y-114842872D01*
X176398056Y-114842872D01*
X176311112Y-114861353D01*
X176217712Y-114881206D01*
X176211682Y-114883891D01*
X176211681Y-114883891D01*
X176049278Y-114956197D01*
X176049276Y-114956198D01*
X176043248Y-114958882D01*
X175888747Y-115071134D01*
X175760960Y-115213056D01*
X175665473Y-115378444D01*
X175606458Y-115560072D01*
X175593044Y-115687704D01*
X175589093Y-115725292D01*
X175562080Y-115790949D01*
X175552878Y-115801217D01*
X174157747Y-117196348D01*
X174149461Y-117203888D01*
X174142982Y-117208000D01*
X174137557Y-117213777D01*
X174096357Y-117257651D01*
X174093602Y-117260493D01*
X174073865Y-117280230D01*
X174071385Y-117283427D01*
X174063682Y-117292447D01*
X174033414Y-117324679D01*
X174029595Y-117331625D01*
X174029593Y-117331628D01*
X174023652Y-117342434D01*
X174012801Y-117358953D01*
X174000386Y-117374959D01*
X173997241Y-117382228D01*
X173997238Y-117382232D01*
X173982826Y-117415537D01*
X173977609Y-117426187D01*
X173956305Y-117464940D01*
X173954334Y-117472615D01*
X173954334Y-117472616D01*
X173951267Y-117484562D01*
X173944863Y-117503266D01*
X173936819Y-117521855D01*
X173935580Y-117529678D01*
X173935577Y-117529688D01*
X173929901Y-117565524D01*
X173927495Y-117577144D01*
X173923457Y-117592872D01*
X173916500Y-117619970D01*
X173916500Y-117640224D01*
X173914949Y-117659934D01*
X173911780Y-117679943D01*
X173912526Y-117687835D01*
X173915941Y-117723961D01*
X173916500Y-117735819D01*
X173916500Y-119274000D01*
X173896498Y-119342121D01*
X173842842Y-119388614D01*
X173790500Y-119400000D01*
X172809500Y-119400000D01*
X172741379Y-119379998D01*
X172694886Y-119326342D01*
X172683500Y-119274000D01*
X172683500Y-116409500D01*
X172703502Y-116341379D01*
X172757158Y-116294886D01*
X172809500Y-116283500D01*
X172925400Y-116283500D01*
X172928646Y-116283163D01*
X172928650Y-116283163D01*
X173024308Y-116273238D01*
X173024312Y-116273237D01*
X173031166Y-116272526D01*
X173037702Y-116270345D01*
X173037704Y-116270345D01*
X173178144Y-116223490D01*
X173198946Y-116216550D01*
X173349348Y-116123478D01*
X173474305Y-115998303D01*
X173478190Y-115992000D01*
X173563275Y-115853968D01*
X173563276Y-115853966D01*
X173567115Y-115847738D01*
X173622797Y-115679861D01*
X173633500Y-115575400D01*
X173633500Y-114849600D01*
X173622526Y-114743834D01*
X173566550Y-114576054D01*
X173473478Y-114425652D01*
X173348303Y-114300695D01*
X173197738Y-114207885D01*
X173117995Y-114181436D01*
X173036389Y-114154368D01*
X173036387Y-114154368D01*
X173029861Y-114152203D01*
X173023025Y-114151503D01*
X173023022Y-114151502D01*
X172979969Y-114147091D01*
X172925400Y-114141500D01*
X171574600Y-114141500D01*
X171571870Y-114141783D01*
X171502899Y-114125348D01*
X171476359Y-114105068D01*
X170018386Y-112647095D01*
X170867001Y-112647095D01*
X170867338Y-112653614D01*
X170877257Y-112749206D01*
X170880149Y-112762600D01*
X170931588Y-112916784D01*
X170937761Y-112929962D01*
X171023063Y-113067807D01*
X171032099Y-113079208D01*
X171146829Y-113193739D01*
X171158240Y-113202751D01*
X171296243Y-113287816D01*
X171309424Y-113293963D01*
X171463710Y-113345138D01*
X171477086Y-113348005D01*
X171571438Y-113357672D01*
X171577854Y-113358000D01*
X171977885Y-113358000D01*
X171993124Y-113353525D01*
X171994329Y-113352135D01*
X171996000Y-113344452D01*
X171996000Y-113339884D01*
X172504000Y-113339884D01*
X172508475Y-113355123D01*
X172509865Y-113356328D01*
X172517548Y-113357999D01*
X172922095Y-113357999D01*
X172928614Y-113357662D01*
X173024206Y-113347743D01*
X173037600Y-113344851D01*
X173191784Y-113293412D01*
X173204962Y-113287239D01*
X173342807Y-113201937D01*
X173354208Y-113192901D01*
X173468739Y-113078171D01*
X173477751Y-113066760D01*
X173562816Y-112928757D01*
X173568963Y-112915576D01*
X173620138Y-112761290D01*
X173623005Y-112747914D01*
X173632672Y-112653562D01*
X173633000Y-112647146D01*
X173633000Y-112559615D01*
X173628525Y-112544376D01*
X173627135Y-112543171D01*
X173619452Y-112541500D01*
X172522115Y-112541500D01*
X172506876Y-112545975D01*
X172505671Y-112547365D01*
X172504000Y-112555048D01*
X172504000Y-113339884D01*
X171996000Y-113339884D01*
X171996000Y-112559615D01*
X171991525Y-112544376D01*
X171990135Y-112543171D01*
X171982452Y-112541500D01*
X170885116Y-112541500D01*
X170869877Y-112545975D01*
X170868672Y-112547365D01*
X170867001Y-112555048D01*
X170867001Y-112647095D01*
X170018386Y-112647095D01*
X169470405Y-112099114D01*
X169436379Y-112036802D01*
X169434077Y-112015385D01*
X170867000Y-112015385D01*
X170871475Y-112030624D01*
X170872865Y-112031829D01*
X170880548Y-112033500D01*
X171977885Y-112033500D01*
X171993124Y-112029025D01*
X171994329Y-112027635D01*
X171996000Y-112019952D01*
X171996000Y-112015385D01*
X172504000Y-112015385D01*
X172508475Y-112030624D01*
X172509865Y-112031829D01*
X172517548Y-112033500D01*
X173614884Y-112033500D01*
X173630123Y-112029025D01*
X173631328Y-112027635D01*
X173632999Y-112019952D01*
X173632999Y-111927905D01*
X173632662Y-111921386D01*
X173622743Y-111825794D01*
X173619851Y-111812400D01*
X173568412Y-111658216D01*
X173562239Y-111645038D01*
X173476937Y-111507193D01*
X173467901Y-111495792D01*
X173353171Y-111381261D01*
X173341760Y-111372249D01*
X173203757Y-111287184D01*
X173190576Y-111281037D01*
X173036290Y-111229862D01*
X173022914Y-111226995D01*
X172928562Y-111217328D01*
X172922145Y-111217000D01*
X172522115Y-111217000D01*
X172506876Y-111221475D01*
X172505671Y-111222865D01*
X172504000Y-111230548D01*
X172504000Y-112015385D01*
X171996000Y-112015385D01*
X171996000Y-111235116D01*
X171991525Y-111219877D01*
X171990135Y-111218672D01*
X171982452Y-111217001D01*
X171577905Y-111217001D01*
X171571386Y-111217338D01*
X171475794Y-111227257D01*
X171462400Y-111230149D01*
X171308216Y-111281588D01*
X171295038Y-111287761D01*
X171157193Y-111373063D01*
X171145792Y-111382099D01*
X171031261Y-111496829D01*
X171022249Y-111508240D01*
X170937184Y-111646243D01*
X170931037Y-111659424D01*
X170879862Y-111813710D01*
X170876995Y-111827086D01*
X170867328Y-111921438D01*
X170867000Y-111927855D01*
X170867000Y-112015385D01*
X169434077Y-112015385D01*
X169433500Y-112010019D01*
X169433500Y-92114595D01*
X169453502Y-92046474D01*
X169470405Y-92025499D01*
X169825501Y-91670404D01*
X169887813Y-91636379D01*
X169914596Y-91633500D01*
X171465500Y-91633500D01*
X171533621Y-91653502D01*
G37*
%TD.AperFunction*%
%TA.AperFunction,Conductor*%
G36*
X172242121Y-88172002D02*
G01*
X172288614Y-88225658D01*
X172300000Y-88278000D01*
X172300000Y-88343784D01*
X172279998Y-88411905D01*
X172274826Y-88419349D01*
X172249385Y-88453295D01*
X172198255Y-88589684D01*
X172191500Y-88651866D01*
X172191500Y-88999000D01*
X172171498Y-89067121D01*
X172117842Y-89113614D01*
X172065500Y-89125000D01*
X171478000Y-89125000D01*
X171409879Y-89104998D01*
X171363386Y-89051342D01*
X171352000Y-88999000D01*
X171352000Y-88851000D01*
X171372002Y-88782879D01*
X171425658Y-88736386D01*
X171478000Y-88725000D01*
X171881885Y-88725000D01*
X171897124Y-88720525D01*
X171898329Y-88719135D01*
X171900000Y-88711452D01*
X171900000Y-88278000D01*
X171920002Y-88209879D01*
X171973658Y-88163386D01*
X172026000Y-88152000D01*
X172174000Y-88152000D01*
X172242121Y-88172002D01*
G37*
%TD.AperFunction*%
%TD*%
M02*
